<?xml version="1.0" encoding="utf-8"?>
<!-- Generator: Adobe Illustrator 19.0.0, SVG Export Plug-In . SVG Version: 6.00 Build 0)  -->
<svg version="1.1" id="Camada_1" xmlns="http://www.w3.org/2000/svg" xmlns:xlink="http://www.w3.org/1999/xlink" x="0px" y="0px"
	 viewBox="0 0 612 143.8" style="enable-background:new 0 0 612 143.8;" xml:space="preserve">
<style type="text/css">
	.st0{fill:#C02C2C;}
	.st1{fill:#211915;}
</style>
<g id="XMLID_65_">
	<g id="XMLID_576_">
		<path id="XMLID_582_" class="st0" d="M119.1,102.6c0,18.7-11.2,27.7-34.6,27.7s-34.6-10.7-34.6-34.8V75.2
			c0-22.4,11.2-34.8,34.6-34.8s34.6,10.7,34.6,34.8v17.7H70.7v2.3c0,14.4,5.6,17.1,14.1,17.1c9.8,0,13.9-3.5,13.9-9.7H119.1z
			 M70.7,75.8H99c0-11.2-2.1-17.4-13.9-17.4C72.8,58.5,70.7,65.1,70.7,75.8z"/>
		<path id="XMLID_580_" class="st0" d="M135.3,13.4H156V97c0,9.8,1.8,13,10.4,13v19.9c-24,0-31.1-7.1-31.1-32.6V13.4z"/>
		<path id="XMLID_577_" class="st0" d="M178.4,96.7V75.2c0-23.4,11.2-34.8,34.6-34.8s34.6,10.7,34.6,34.8v21.5
			c0,24-11.2,34.8-34.6,34.8S178.4,120.7,178.4,96.7z M226.8,95.6V76.3c0-11-2.9-17.4-13.8-17.4s-13.8,6.3-13.8,17.4v19.3
			c0,11,2.9,17.4,13.8,17.4S226.8,106.7,226.8,95.6z"/>
	</g>
	<g id="XMLID_519_">
		<g id="XMLID_549_">
			<g id="XMLID_110_">
				<path id="XMLID_121_" class="st1" d="M287.3,122.5c0-1.7-0.6-3-1.7-3.9c-1.2-1-3.3-1.9-6.4-2.8c-3.1-0.9-5.4-1.8-6.8-2.8
					c-2-1.5-3-3.4-3-5.7c0-2.3,0.9-4.1,2.8-5.6c1.9-1.4,4.3-2.1,7.2-2.1c2,0,3.8,0.4,5.3,1.2c1.6,0.8,2.8,1.8,3.6,3.2
					c0.9,1.4,1.3,2.9,1.3,4.6h-2.5c0-2-0.7-3.7-2.1-4.9c-1.4-1.2-3.3-1.9-5.6-1.9c-2.3,0-4.1,0.5-5.5,1.5c-1.4,1-2,2.4-2,4
					c0,1.5,0.6,2.8,1.8,3.7c1.2,1,3.2,1.8,5.9,2.5c2.7,0.7,4.7,1.5,6.1,2.3c1.4,0.8,2.4,1.7,3.1,2.8c0.7,1.1,1,2.4,1,3.9
					c0,2.4-0.9,4.2-2.8,5.7c-1.9,1.4-4.4,2.1-7.4,2.1c-2.1,0-4-0.4-5.8-1.1c-1.8-0.8-3.1-1.8-4-3.2c-0.9-1.4-1.4-2.9-1.4-4.7h2.5
					c0,2.1,0.8,3.8,2.4,5c1.6,1.2,3.7,1.8,6.3,1.8c2.3,0,4.2-0.5,5.6-1.5C286.6,125.6,287.3,124.2,287.3,122.5z"/>
				<path id="XMLID_119_" class="st1" d="M332.3,116.3l9.1-16.3h2.9l-10.8,18.6v11.3h-2.5v-11.3L320.3,100h3L332.3,116.3z"/>
				<path id="XMLID_117_" class="st1" d="M393.7,122.5c0-1.7-0.6-3-1.7-3.9c-1.2-1-3.3-1.9-6.4-2.8c-3.1-0.9-5.4-1.8-6.8-2.8
					c-2-1.5-3-3.4-3-5.7c0-2.3,0.9-4.1,2.8-5.6c1.9-1.4,4.3-2.1,7.2-2.1c2,0,3.8,0.4,5.3,1.2c1.6,0.8,2.8,1.8,3.6,3.2
					c0.9,1.4,1.3,2.9,1.3,4.6h-2.5c0-2-0.7-3.7-2.1-4.9c-1.4-1.2-3.3-1.9-5.6-1.9c-2.3,0-4.1,0.5-5.5,1.5c-1.4,1-2,2.4-2,4
					c0,1.5,0.6,2.8,1.8,3.7c1.2,1,3.2,1.8,5.9,2.5c2.7,0.7,4.7,1.5,6.1,2.3c1.4,0.8,2.4,1.7,3.1,2.8c0.7,1.1,1,2.4,1,3.9
					c0,2.4-0.9,4.2-2.8,5.7c-1.9,1.4-4.4,2.1-7.4,2.1c-2.1,0-4-0.4-5.8-1.1c-1.8-0.8-3.1-1.8-4-3.2c-0.9-1.4-1.4-2.9-1.4-4.7h2.5
					c0,2.1,0.8,3.8,2.4,5c1.6,1.2,3.7,1.8,6.3,1.8c2.3,0,4.2-0.5,5.6-1.5C393,125.6,393.7,124.2,393.7,122.5z"/>
				<path id="XMLID_115_" class="st1" d="M450.3,102.1H440v27.8h-2.5v-27.8h-10.2V100h23V102.1z"/>
				<path id="XMLID_113_" class="st1" d="M500.2,115.5h-14v12.2h16.1v2.1h-18.6V100h18.5v2.1h-16v11.3h14V115.5z"/>
				<path id="XMLID_111_" class="st1" d="M539.3,100l11,26.4l11.1-26.4h3.4v29.9h-2.5v-13l0.2-13.4l-11.1,26.4h-1.9l-11.1-26.3
					l0.2,13.2v13.1h-2.5V100H539.3z"/>
			</g>
		</g>
		<g id="XMLID_520_">
			<g id="XMLID_130_">
				<path id="XMLID_141_" class="st1" d="M268.4,74.3V42.6h8.9c2.6,0,4.9,0.6,7,1.8c2.1,1.2,3.7,2.9,4.8,5.1
					c1.1,2.2,1.7,4.7,1.7,7.5v2.9c0,2.8-0.6,5.3-1.7,7.5s-2.8,3.9-4.8,5.1c-2.1,1.2-4.5,1.8-7.2,1.8H268.4z M271.1,44.9V72h6
					c3.3,0,6-1.1,8-3.3c2-2.2,3-5.2,3-9v-2.8c0-3.6-1-6.6-3-8.7c-2-2.2-4.6-3.3-7.8-3.3H271.1z"/>
				<path id="XMLID_139_" class="st1" d="M345,59.1h-14.8V72h17v2.3h-19.7V42.6h19.6v2.3h-16.9v12H345V59.1z"/>
				<path id="XMLID_137_" class="st1" d="M400.8,66.5c0-1.8-0.6-3.1-1.8-4.2c-1.2-1-3.5-2-6.8-2.9c-3.3-0.9-5.7-1.9-7.2-3
					c-2.1-1.5-3.2-3.6-3.2-6c0-2.4,1-4.4,3-5.9c2-1.5,4.5-2.3,7.6-2.3c2.1,0,4,0.4,5.6,1.2c1.7,0.8,2.9,1.9,3.9,3.4s1.4,3.1,1.4,4.8
					h-2.7c0-2.2-0.7-3.9-2.2-5.2s-3.5-2-6-2c-2.4,0-4.3,0.5-5.8,1.6c-1.4,1.1-2.2,2.5-2.2,4.2c0,1.6,0.6,2.9,1.9,3.9
					c1.3,1,3.4,1.9,6.2,2.7c2.8,0.8,5,1.6,6.5,2.4c1.5,0.8,2.6,1.8,3.3,3c0.7,1.2,1.1,2.5,1.1,4.1c0,2.5-1,4.5-3,6
					c-2,1.5-4.6,2.3-7.9,2.3c-2.2,0-4.3-0.4-6.1-1.2c-1.9-0.8-3.3-1.9-4.2-3.3c-1-1.4-1.4-3.1-1.4-4.9h2.7c0,2.2,0.8,4,2.5,5.3
					c1.7,1.3,3.9,1.9,6.7,1.9c2.5,0,4.4-0.5,5.9-1.6C400,69.7,400.8,68.3,400.8,66.5z"/>
				<path id="XMLID_135_" class="st1" d="M442.6,74.3h-2.7V42.6h2.7V74.3z"/>
				<path id="XMLID_133_" class="st1" d="M503.7,70.5c-0.9,1.3-2.4,2.3-4.4,3.1c-2,0.7-4.2,1.1-6.6,1.1c-2.5,0-4.7-0.6-6.6-1.8
					c-1.9-1.2-3.4-2.9-4.5-5s-1.6-4.7-1.6-7.5v-4c0-4.4,1.1-7.9,3.3-10.4c2.2-2.5,5.2-3.8,8.9-3.8c3.3,0,5.9,0.8,7.9,2.5
					c2,1.7,3.2,3.9,3.5,6.9H501c-0.4-2.3-1.3-4.1-2.8-5.3c-1.5-1.2-3.5-1.8-5.9-1.8c-3,0-5.3,1.1-7,3.2c-1.7,2.1-2.6,5.1-2.6,8.9
					v3.7c0,2.4,0.4,4.5,1.2,6.4c0.8,1.8,2,3.3,3.5,4.3c1.5,1,3.3,1.5,5.3,1.5c2.3,0,4.3-0.4,5.9-1.1c1.1-0.5,1.9-1,2.4-1.7v-8.2
					h-8.5v-2.3h11.2V70.5z"/>
				<path id="XMLID_131_" class="st1" d="M564.7,74.3H562l-18.2-27.1v27.1h-2.7V42.6h2.7l18.2,27.1V42.6h2.7V74.3z"/>
			</g>
		</g>
	</g>
</g>
</svg>
