<?xml version="1.0" encoding="utf-8"?>
<!-- Generator: Adobe Illustrator 19.0.0, SVG Export Plug-In . SVG Version: 6.00 Build 0)  -->
<svg version="1.1" id="Camada_1" xmlns="http://www.w3.org/2000/svg" xmlns:xlink="http://www.w3.org/1999/xlink" x="0px" y="0px"
	 viewBox="0 0 921.2 211.2" style="enable-background:new 0 0 921.2 211.2;" xml:space="preserve">
<style type="text/css">
	.st0{fill:#C12C2C;}
</style>
<g id="XMLID_65_">
	<g id="XMLID_576_">
		<path id="XMLID_582_" class="st0" d="M123.8,159.5c0,33.5-20,49.5-61.9,49.5S0,189.8,0,146.8v-36.2c0-40,20-62.2,61.9-62.2
			s61.9,19.2,61.9,62.2v31.6H37.3v4.1c0,25.7,10,30.6,25.2,30.6c17.6,0,24.9-6.2,24.9-17.3H123.8z M37.3,111.7h50.6
			c0-20-3.8-31.1-24.9-31.1C41.1,80.6,37.3,92.5,37.3,111.7z"/>
		<path id="XMLID_580_" class="st0" d="M152.8,0h37v149.5c0,17.6,3.2,23.3,18.7,23.3v35.7c-43,0-55.7-12.7-55.7-58.4V0z"/>
		<path id="XMLID_577_" class="st0" d="M230.1,149v-38.4c0-41.9,20-62.2,61.9-62.2s61.9,19.2,61.9,62.2V149c0,43-20,62.2-61.9,62.2
			S230.1,192,230.1,149z M316.6,147.1v-34.6c0-19.7-5.1-31.1-24.6-31.1s-24.6,11.4-24.6,31.1v34.6c0,19.7,5.1,31.1,24.6,31.1
			S316.6,166.8,316.6,147.1z"/>
	</g>
	<g id="XMLID_519_">
		<g id="XMLID_549_">
			<g id="XMLID_699_">
				<path id="XMLID_727_" d="M424.9,195.2c0-3-1-5.3-3.1-7c-2.1-1.7-5.9-3.4-11.4-4.9c-5.5-1.6-9.6-3.3-12.1-5.1
					c-3.6-2.6-5.4-6-5.4-10.2c0-4.1,1.7-7.4,5.1-10c3.4-2.6,7.7-3.8,12.9-3.8c3.5,0,6.7,0.7,9.5,2.1c2.8,1.4,5,3.3,6.5,5.7
					c1.5,2.5,2.3,5.2,2.3,8.2h-4.6c0-3.7-1.3-6.6-3.8-8.8c-2.5-2.2-5.9-3.3-10.1-3.3c-4.1,0-7.4,0.9-9.8,2.7
					c-2.4,1.8-3.6,4.2-3.6,7.2c0,2.7,1.1,4.9,3.3,6.7c2.2,1.7,5.7,3.2,10.5,4.5c4.8,1.3,8.4,2.7,10.9,4.1s4.3,3.1,5.6,5.1
					c1.3,2,1.9,4.3,1.9,6.9c0,4.2-1.7,7.6-5.1,10.1c-3.4,2.5-7.8,3.8-13.3,3.8c-3.8,0-7.2-0.7-10.4-2c-3.1-1.3-5.5-3.2-7.2-5.7
					c-1.6-2.4-2.4-5.2-2.4-8.3h4.5c0,3.8,1.4,6.7,4.2,8.9c2.8,2.2,6.6,3.3,11.2,3.3c4.2,0,7.5-0.9,10-2.8
					C423.6,200.7,424.9,198.2,424.9,195.2z"/>
				<path id="XMLID_725_" d="M505.4,184l16.4-29.2h5.2l-19.3,33.4v20.1h-4.5v-20.1l-19.3-33.4h5.4L505.4,184z"/>
				<path id="XMLID_723_" d="M615.2,195.2c0-3-1-5.3-3.1-7c-2.1-1.7-5.9-3.4-11.4-4.9c-5.5-1.6-9.6-3.3-12.1-5.1
					c-3.6-2.6-5.4-6-5.4-10.2c0-4.1,1.7-7.4,5.1-10c3.4-2.6,7.7-3.8,12.9-3.8c3.5,0,6.7,0.7,9.5,2.1c2.8,1.4,5,3.3,6.5,5.7
					c1.5,2.5,2.3,5.2,2.3,8.2h-4.6c0-3.7-1.3-6.6-3.8-8.8c-2.5-2.2-5.9-3.3-10.1-3.3c-4.1,0-7.4,0.9-9.8,2.7
					c-2.4,1.8-3.6,4.2-3.6,7.2c0,2.7,1.1,4.9,3.3,6.7c2.2,1.7,5.7,3.2,10.5,4.5c4.8,1.3,8.4,2.7,10.9,4.1s4.3,3.1,5.6,5.1
					c1.3,2,1.9,4.3,1.9,6.9c0,4.2-1.7,7.6-5.1,10.1c-3.4,2.5-7.8,3.8-13.3,3.8c-3.8,0-7.2-0.7-10.4-2c-3.1-1.3-5.5-3.2-7.2-5.7
					c-1.6-2.4-2.4-5.2-2.4-8.3h4.5c0,3.8,1.4,6.7,4.2,8.9c2.8,2.2,6.6,3.3,11.2,3.3c4.2,0,7.5-0.9,10-2.8
					C613.9,200.7,615.2,198.2,615.2,195.2z"/>
				<path id="XMLID_704_" d="M716.4,158.7h-18.3v49.7h-4.5v-49.7h-18.3v-3.8h41.2V158.7z"/>
				<path id="XMLID_702_" d="M805.7,182.7h-25v21.8h28.8v3.8h-33.3v-53.5h33.1v3.8h-28.6v20.2h25V182.7z"/>
				<path id="XMLID_700_" d="M875.6,154.8l19.7,47.2l19.8-47.2h6v53.5h-4.5v-23.3l0.4-23.9l-19.9,47.2h-3.5l-19.8-47l0.4,23.6v23.4
					h-4.5v-53.5H875.6z"/>
			</g>
		</g>
		<g id="XMLID_520_">
			<g id="XMLID_705_">
				<path id="XMLID_719_" d="M391.1,108.9V52.3h15.8c4.6,0,8.8,1.1,12.5,3.2s6.6,5.1,8.6,9.1c2.1,3.9,3.1,8.4,3.1,13.5v5.2
					c0,5.1-1,9.5-3.1,13.5c-2,3.9-4.9,6.9-8.7,9.1c-3.7,2.1-8,3.2-12.8,3.2H391.1z M395.9,56.3v48.6h10.7c6,0,10.7-2,14.4-5.9
					c3.6-4,5.4-9.3,5.4-16.1v-5c0-6.5-1.8-11.7-5.3-15.7s-8.2-5.9-14-5.9H395.9z"/>
				<path id="XMLID_717_" d="M528.1,81.7h-26.5v23.1h30.5v4h-35.2V52.3h35v4h-30.3v21.4h26.5V81.7z"/>
				<path id="XMLID_715_" d="M627.9,95c0-3.1-1.1-5.6-3.3-7.5c-2.2-1.8-6.2-3.6-12.1-5.2c-5.9-1.6-10.1-3.4-12.8-5.4
					c-3.8-2.7-5.8-6.4-5.8-10.8c0-4.3,1.8-7.8,5.4-10.6c3.6-2.7,8.1-4.1,13.7-4.1c3.8,0,7.1,0.7,10.1,2.2c3,1.5,5.3,3.5,6.9,6.1
					c1.6,2.6,2.5,5.5,2.5,8.7h-4.8c0-3.9-1.3-7-4-9.3s-6.2-3.5-10.7-3.5c-4.3,0-7.8,1-10.3,2.9c-2.6,1.9-3.9,4.5-3.9,7.6
					c0,2.9,1.2,5.2,3.5,7.1c2.3,1.8,6,3.4,11.1,4.8c5.1,1.4,8.9,2.8,11.6,4.3c2.6,1.5,4.6,3.3,5.9,5.3c1.3,2.1,2,4.5,2,7.4
					c0,4.5-1.8,8-5.4,10.7c-3.6,2.7-8.3,4-14.1,4c-4,0-7.7-0.7-11-2.1c-3.3-1.4-5.9-3.4-7.6-6c-1.7-2.6-2.6-5.5-2.6-8.8h4.8
					c0,4,1.5,7.1,4.5,9.5c3,2.3,7,3.5,11.9,3.5c4.4,0,8-1,10.6-2.9S627.9,98.2,627.9,95z"/>
				<path id="XMLID_713_" d="M702.7,108.9h-4.8V52.3h4.8V108.9z"/>
				<path id="XMLID_710_" d="M812,102.2c-1.7,2.4-4.3,4.2-7.8,5.5c-3.5,1.3-7.5,2-11.9,2c-4.4,0-8.4-1.1-11.8-3.2s-6.1-5.1-8-9
					s-2.9-8.4-2.9-13.4v-7.2c0-7.9,2-14.1,6-18.6c4-4.6,9.3-6.8,16-6.8c5.8,0,10.5,1.5,14.1,4.5c3.6,3,5.7,7.1,6.3,12.3h-4.8
					c-0.7-4.2-2.4-7.3-5.1-9.5c-2.7-2.1-6.2-3.2-10.5-3.2c-5.3,0-9.5,1.9-12.6,5.6c-3.1,3.8-4.6,9.1-4.6,15.9v6.7
					c0,4.3,0.7,8.1,2.2,11.4c1.5,3.3,3.6,5.9,6.3,7.7c2.7,1.8,5.9,2.7,9.4,2.7c4.1,0,7.7-0.6,10.6-1.9c1.9-0.9,3.3-1.9,4.3-3V86.1
					H792v-4h20V102.2z"/>
				<path id="XMLID_708_" d="M921.2,108.9h-4.8l-32.6-48.5v48.5H879V52.3h4.8l32.6,48.5V52.3h4.7V108.9z"/>
			</g>
		</g>
	</g>
</g>
</svg>
