<?xml version="1.0" encoding="utf-8"?>
<!-- Generator: Adobe Illustrator 19.0.0, SVG Export Plug-In . SVG Version: 6.00 Build 0)  -->
<svg version="1.1" id="Camada_1" xmlns="http://www.w3.org/2000/svg" xmlns:xlink="http://www.w3.org/1999/xlink" x="0px" y="0px"
	 viewBox="0 0 742.1 448.3" style="enable-background:new 0 0 742.1 448.3;" xml:space="preserve">
<style type="text/css">
	.st0{fill:#293542;}
	.st1{fill:#42A3B3;}
	.st2{fill:#9B9A9B;}
	.st3{fill:#7F7F7F;}
	.st4{fill:#DBDCDC;}
	.st5{fill:#B7BBC0;}
	.st6{fill:#F8F8F8;}
	.st7{fill:#EDEDEC;}
	.st8{fill:#EBEAEA;}
	.st9{fill:#D3D2D3;}
	.st10{fill:#DBDBDB;}
	.st11{fill:#E0E0E0;}
	.st12{fill:none;stroke:#B6BABF;stroke-width:0.4;}
	.st13{fill:#4870B0;}
	.st14{fill:#B1B1B1;}
	.st15{fill:#999999;}
	.st16{fill:#6B6B6A;}
</style>
<g id="XMLID_592_">
	<polygon id="XMLID_663_" class="st0" points="116.3,152.2 89.6,136.8 0.1,188.5 26.7,203.8 	"/>
	<path id="XMLID_966_" class="st1" d="M95.2,153.4L35.3,188c-0.6,0.3-1.5,0.3-2.1,0l-6.9-3.9c-0.6-0.3-0.6-0.9-0.1-1.2l59.9-34.5
		c0.6-0.3,1.5-0.3,2.1,0l6.9,3.9C95.7,152.6,95.8,153.1,95.2,153.4z"/>
	<g id="XMLID_692_">
		<polygon id="Fill-201_1_" class="st2" points="0.1,188.5 0.1,193 26.6,208.4 26.8,203.7 		"/>
		<polygon id="Fill-203_7_" class="st3" points="26.8,203.7 26.6,208.4 116,157 116.3,152.2 		"/>
	</g>
</g>
<polygon id="Fill-49_5_" class="st4" points="0.1,240.9 0.1,260.9 324.8,448.3 324.8,428.2 "/>
<polygon id="Fill-50_5_" class="st5" points="324.8,428.2 324.8,448.3 742.2,207.4 742.2,187.3 "/>
<polygon id="Fill-17_5_" class="st6" points="0.1,240.9 324.7,428.2 742.2,187.4 417.5,0 "/>
<polygon id="Fill-80_5_" class="st7" points="115.8,204.8 143.2,220.6 471.5,31.1 444.1,15.3 "/>
<polygon id="XMLID_1173_" class="st8" points="324.7,428.2 414.3,376.6 89.6,189.2 0.1,240.9 "/>
<polygon id="XMLID_1172_" class="st8" points="444.1,15.4 417.5,0 0.1,240.9 26.7,256.3 "/>
<g id="XMLID_1171_">
	<path id="Fill-209_5_" class="st9" d="M104.2,222.4l12.1,6.9c0.1,0.1,0.3,0.1,0.4,0l11.1-6.2c0.3-0.1,0.3-0.5,0-0.7l-12.1-6.9
		c-0.1-0.1-0.3-0.1-0.4,0l-11.1,6.2C103.9,221.9,103.9,222.2,104.2,222.4z"/>
</g>
<polygon id="XMLID_1170_" class="st9" points="368.3,47.3 418.3,18.4 413.1,15.4 363.1,44.2 "/>
<g id="XMLID_1167_">
	<path id="XMLID_1168_" class="st10" d="M419.6,15.8l-2.9-0.9l0.4-0.2l2.3,0.8l0,0l-0.8-1.6l0.4-0.2l1,2L419.6,15.8z"/>
</g>
<g id="XMLID_1133_">
	<polygon id="XMLID_1166_" class="st9" points="106.1,268.8 155.6,239.9 150.4,236.8 100.8,265.7 	"/>
	<polygon id="XMLID_1163_" class="st9" points="83.3,268.8 113.9,251 108.6,248 78,265.7 	"/>
	<polygon id="XMLID_1162_" class="st9" points="95,276.4 101.9,272.3 95.2,268.4 88.3,272.5 	"/>
	<polygon id="XMLID_1159_" class="st11" points="178.9,344 267.9,292.1 252.4,283.2 163.4,335.2 	"/>
	<g id="XMLID_1154_">
		<polygon id="XMLID_1158_" class="st9" points="186.1,311.7 232.9,284.5 227.6,281.4 180.9,308.6 		"/>
		<polygon id="XMLID_1157_" class="st9" points="205.5,322.8 252.2,295.6 246.9,292.6 200.2,319.7 		"/>
		<polygon id="XMLID_1156_" class="st9" points="239.6,325.3 271.5,306.8 266.2,303.7 234.3,322.2 		"/>
		<polygon id="XMLID_1155_" class="st9" points="258.9,336.4 290.8,317.9 285.6,314.9 253.6,333.3 		"/>
	</g>
	<polygon id="XMLID_1151_" class="st11" points="140.4,321.9 229.5,269.9 214,261.1 125,313.1 	"/>
	<g id="XMLID_1148_">
		<path id="XMLID_1149_" class="st9" d="M255,292.5l-3-0.9l0.4-0.2l2.3,0.8l0,0l-0.9-1.6l0.4-0.2l1,2L255,292.5z"/>
	</g>
	<g id="XMLID_1145_">
		<path id="XMLID_1146_" class="st9" d="M215.6,270.4l-3-0.9l0.4-0.2l2.3,0.8l0,0l-0.9-1.6l0.4-0.2l1,2L215.6,270.4z"/>
	</g>
	<g id="XMLID_1134_">
		<polygon id="XMLID_1144_" class="st9" points="125.4,279.9 174.9,251 169.7,248 120.1,276.9 		"/>
		<polygon id="XMLID_1143_" class="st9" points="114.3,287.6 121.2,283.5 114.5,279.6 107.6,283.7 		"/>
		<polygon id="XMLID_1142_" class="st9" points="144.7,291.1 194.2,262.2 189,259.1 139.5,288 		"/>
		<polygon id="XMLID_1141_" class="st9" points="133.6,298.7 140.5,294.6 133.8,290.7 126.9,294.8 		"/>
		<polygon id="XMLID_1140_" class="st9" points="164,302.2 213.6,273.3 208.3,270.3 158.8,299.2 		"/>
		<polygon id="XMLID_1139_" class="st9" points="152.9,309.9 159.8,305.8 153.1,301.9 146.2,306 		"/>
		<polygon id="XMLID_1138_" class="st9" points="260.6,358 310.1,329.1 304.9,326 255.3,355 		"/>
		<polygon id="XMLID_1137_" class="st9" points="249.5,365.6 256.4,361.5 249.7,357.7 242.8,361.7 		"/>
		<polygon id="XMLID_1136_" class="st9" points="279.9,369.2 329.4,340.3 324.2,337.2 274.7,366.1 		"/>
		<polygon id="XMLID_1135_" class="st9" points="268.8,376.8 275.7,372.7 269,368.8 262.1,372.9 		"/>
	</g>
</g>
<g id="XMLID_1124_">
	<path id="XMLID_1129_" class="st9" d="M363.1,47.5c3.5,2.3,3.8,5.5,0.8,7.3c-3,1.7-8.2,1.3-11.7-1c-3.5-2.3-3.8-5.5-0.8-7.3
		C354.5,44.8,359.7,45.2,363.1,47.5z"/>
</g>
<polygon id="XMLID_1123_" class="st9" points="340.5,64.7 347.5,60.6 340.8,56.8 333.8,60.8 "/>
<polygon id="XMLID_1122_" class="st9" points="327,72.5 334,68.4 327.3,64.5 320.4,68.6 "/>
<polygon id="XMLID_1121_" class="st9" points="313.6,80.2 320.5,76.1 313.9,72.3 306.9,76.3 "/>
<polygon id="XMLID_1120_" class="st9" points="300.1,88 307.1,83.9 300.4,80 293.4,84.1 "/>
<polygon id="XMLID_1119_" class="st9" points="286.6,95.7 293.6,91.6 286.9,87.8 280,91.8 "/>
<path id="XMLID_1116_" class="st9" d="M295.4,82.9c1.1,0.7,1.1,1.8,0.2,2.4c-1,0.6-2.7,0.4-3.7-0.3c-1.1-0.7-1.1-1.8-0.2-2.4
	C292.6,82.1,294.3,82.2,295.4,82.9z"/>
<g id="XMLID_1113_">
	<polygon id="Fill-195_10_" class="st6" points="172,215.3 467.4,45.5 706.9,183.7 411.4,353.5 	"/>
	<polygon id="XMLID_1115_" class="st6" points="467.4,45.5 467.4,52.2 700.3,187.4 706.9,183.7 467.4,45.5 	"/>
	<polygon id="XMLID_1114_" class="st6" points="467.4,45.5 172,215.3 177.4,218.5 467.4,52 	"/>
</g>
<polygon id="Fill-205_11_" class="st6" points="209.4,235.1 337.7,158.5 533.4,271.4 405,348 "/>
<polygon id="Fill-211_10_" class="st9" points="233.6,230.8 239.4,234.2 326.5,183.9 320.7,180.6 "/>
<polygon id="Fill-219_11_" class="st9" points="297.1,267.7 302.9,271 389.9,220.8 384.1,217.4 "/>
<polygon id="Fill-229_11_" class="st9" points="360.9,304.5 366.7,307.9 453.8,257.6 448,254.3 "/>
<g id="XMLID_1094_">
	<polygon id="Fill-213_11_" class="st9" points="251,240.9 256.8,244.2 367.1,180.6 361.3,177.2 	"/>
	<polygon id="Fill-215_11_" class="st9" points="262.6,247.6 268.4,250.9 379.8,186.6 374,183.3 	"/>
	<polygon id="Fill-217_11_" class="st9" points="274.2,254.3 280,257.6 355.1,214.1 349.3,210.7 	"/>
	<polygon id="Fill-221_11_" class="st9" points="314.5,277.7 320.3,281.1 430.6,217.4 424.8,214.1 	"/>
	<polygon id="Fill-223_11_" class="st9" points="326.1,284.4 331.9,287.8 401.6,247.6 395.8,244.2 	"/>
	<polygon id="Fill-225_11_" class="st9" points="337.7,291.1 343.5,294.5 424.8,247.6 419,244.2 	"/>
	<polygon id="Fill-231_11_" class="st9" points="378.3,314.6 384.1,317.9 494.4,254.3 488.6,250.9 	"/>
	<polygon id="Fill-239_11_" class="st9" points="390.1,321.3 395.9,324.6 465.6,284.4 459.8,281.1 	"/>
	<polygon id="Fill-241_11_" class="st9" points="401.7,328 407.5,331.3 488.8,284.4 483,281.1 	"/>
</g>
<polygon id="Fill-205_10_" class="st6" points="355.1,149 483.4,72.5 679.1,185.4 550.8,262 "/>
<polygon id="Fill-211_9_" class="st9" points="379.3,144.8 385.1,148.1 472.2,97.9 466.4,94.5 "/>
<polygon id="Fill-219_10_" class="st9" points="442.8,181.6 448.6,184.9 535.7,134.7 529.9,131.4 "/>
<polygon id="Fill-229_10_" class="st9" points="506.7,218.4 512.5,221.8 599.5,171.5 593.7,168.2 "/>
<g id="XMLID_1074_">
	<polygon id="Fill-213_10_" class="st9" points="396.7,154.8 402.5,158.2 512.8,94.5 507,91.2 	"/>
	<polygon id="Fill-215_10_" class="st9" points="408.3,161.5 414.1,164.9 525.5,100.5 519.7,97.2 	"/>
	<polygon id="Fill-217_10_" class="st9" points="419.9,168.2 425.8,171.6 500.8,128 495,124.7 	"/>
	<polygon id="Fill-221_10_" class="st9" points="460.2,191.6 466,195 576.3,131.4 570.5,128 	"/>
	<polygon id="Fill-223_10_" class="st9" points="471.8,198.3 477.6,201.7 547.3,161.5 541.5,158.2 	"/>
	<polygon id="Fill-225_10_" class="st9" points="483.4,205 489.2,208.4 570.5,161.5 564.7,158.2 	"/>
	<polygon id="Fill-231_10_" class="st9" points="524.1,228.5 529.9,231.8 640.1,168.2 634.3,164.8 	"/>
	<polygon id="Fill-239_10_" class="st9" points="535.9,235.2 541.7,238.5 611.3,198.3 605.5,195 	"/>
	<polygon id="Fill-241_10_" class="st9" points="547.5,241.9 553.3,245.2 634.5,198.3 628.7,195 	"/>
</g>
<line id="XMLID_1072_" class="st12" x1="209.3" y1="221.8" x2="481.2" y2="64.9"/>
<polygon id="XMLID_1069_" class="st9" points="204.2,215.7 279.2,172.6 272.5,168.7 197.5,211.8 "/>
<polygon id="XMLID_1066_" class="st9" points="434.1,86.5 477.5,61.4 466.2,54.9 422.8,80 "/>
<g id="XMLID_1065_">
	<polygon id="Fill-71_5_" class="st9" points="218.4,162.2 219.8,166.6 182.8,187.9 181.3,183.5 173.6,182.6 210.4,161.3 	"/>
	<path id="Fill-74_5_" class="st9" d="M263,141.6l34.9-20.1c2.9-1.7,3.2-4.2,0.6-5.7c-2.5-1.5-7-1.3-9.9,0.4l-34.9,20.1l7.7,0.9
		L263,141.6z"/>
	<polygon id="Fill-76_5_" class="st9" points="250.7,138.1 258.4,139 259.9,143.4 222.9,164.8 221.5,160.4 213.7,159.5 	"/>
	<path id="Fill-78_5_" class="st9" d="M170.5,184.3L142,200.8c-2.9,1.7-3.2,4.2-0.6,5.7c2.5,1.5,7,1.3,9.9-0.4l28.6-16.5l-1.5-4.5
		L170.5,184.3z"/>
</g>
<g id="XMLID_705_">
	<polygon id="Fill-201_10_" class="st2" points="306.9,44.3 306.9,46.9 313.4,50.8 313.5,48.2 	"/>
	<polygon id="Fill-203_10_" class="st3" points="313.5,48.2 313.4,50.8 320.3,47 320.5,44.1 	"/>
	<polygon id="XMLID_580_" class="st0" points="313.6,48.2 320.5,44.1 313.9,40.3 306.9,44.3 	"/>
</g>
<g id="XMLID_696_">
	<polygon id="XMLID_578_" class="st13" points="434.1,56.5 477.5,31.4 466.2,24.9 422.8,50 	"/>
	<polygon id="Fill-201_9_" class="st2" points="422.8,49.8 422.8,54.4 434,60.8 434.2,56.1 	"/>
	<polygon id="Fill-203_9_" class="st3" points="434.2,56.1 434,60.8 477.4,36.2 477.6,31.4 	"/>
</g>
<g id="XMLID_581_">
	<polygon id="Fill-201_4_" class="st2" points="197.5,181.8 197.6,185.3 204,188.8 204.2,185.1 	"/>
	<polygon id="Fill-203_8_" class="st3" points="204.2,185.1 204,188.8 279,146.4 279.2,142.6 	"/>
	<polygon id="XMLID_579_" class="st1" points="204.2,185.7 279.2,142.6 272.5,138.7 197.5,181.8 	"/>
</g>
<polygon id="XMLID_726_" class="st14" points="466,55 422.8,80 425.8,81.7 466,58.6 "/>
<polygon id="XMLID_729_" class="st15" points="466,55 466,58.6 474,63.5 477.5,61.4 466.2,54.9 "/>
<polygon id="XMLID_802_" class="st14" points="313.9,72.3 313.9,72.3 306.9,76.3 308.3,77.1 313.9,73.9 "/>
<polygon id="XMLID_810_" class="st15" points="313.9,73.9 319.3,76.9 320.5,76.1 313.9,72.3 "/>
<polygon id="XMLID_783_" class="st9" points="116.3,204.6 89.6,189.2 0.1,240.9 26.7,256.3 "/>
<polygon id="XMLID_803_" class="st15" points="272.1,168.9 272.1,170.4 277.4,173.6 279.2,172.6 272.5,168.7 "/>
<polygon id="XMLID_811_" class="st14" points="272.1,168.9 197.5,211.8 198.9,212.6 272.1,170.4 "/>
<polygon id="XMLID_727_" class="st15" points="106.4,184.4 106.4,188 130.3,201.9 133.9,199.9 106.6,184.3 "/>
<polygon id="XMLID_822_" class="st15" points="89.6,189.2 89.6,189.2 89.6,192.7 113.1,206.4 116.3,204.6 "/>
<polygon id="XMLID_823_" class="st14" points="89.6,189.2 0.1,240.9 2.8,242.5 89.6,192.8 "/>
<g id="XMLID_207_">
	<path id="XMLID_208_" class="st16" d="M619.1,334.7h-0.8v-6.4H616v-0.7h5.4v0.7h-2.3V334.7z"/>
	<path id="XMLID_210_" class="st16" d="M624.1,334.8c-0.8,0-1.4-0.2-1.9-0.7c-0.5-0.5-0.7-1.2-0.7-2c0-0.9,0.2-1.5,0.6-2.1
		s1-0.8,1.7-0.8c0.7,0,1.2,0.2,1.6,0.7c0.4,0.4,0.6,1,0.6,1.7v0.5h-3.7c0,0.6,0.2,1.1,0.5,1.4c0.3,0.3,0.7,0.5,1.3,0.5
		c0.6,0,1.1-0.1,1.7-0.4v0.7c-0.3,0.1-0.6,0.2-0.8,0.3C624.7,334.8,624.4,334.8,624.1,334.8z M623.8,329.9c-0.4,0-0.8,0.1-1,0.4
		c-0.3,0.3-0.4,0.7-0.5,1.2h2.8c0-0.5-0.1-0.9-0.3-1.2C624.6,330.1,624.3,329.9,623.8,329.9z"/>
	<path id="XMLID_213_" class="st16" d="M628.9,332l-1.9-2.6h0.9l1.4,2.1l1.4-2.1h0.9l-1.9,2.6l2,2.7h-0.9l-1.5-2.2l-1.5,2.2H627
		L628.9,332z"/>
	<path id="XMLID_215_" class="st16" d="M635.1,334.1c0.1,0,0.3,0,0.4,0c0.1,0,0.2,0,0.3-0.1v0.6c-0.1,0-0.2,0.1-0.4,0.1
		c-0.2,0-0.3,0-0.5,0c-1,0-1.6-0.5-1.6-1.6V330h-0.8v-0.4l0.8-0.3l0.3-1.1h0.5v1.2h1.6v0.6h-1.6v3.1c0,0.3,0.1,0.6,0.2,0.7
		C634.6,334,634.9,334.1,635.1,334.1z"/>
	<path id="XMLID_217_" class="st16" d="M641.7,332c0,0.9-0.2,1.6-0.7,2c-0.4,0.5-1,0.7-1.8,0.7c-0.5,0-0.9-0.1-1.3-0.3
		s-0.7-0.5-0.9-1c-0.2-0.4-0.3-0.9-0.3-1.5c0-0.9,0.2-1.6,0.7-2c0.4-0.5,1-0.7,1.8-0.7c0.7,0,1.3,0.2,1.8,0.7
		C641.4,330.5,641.7,331.2,641.7,332z M637.6,332c0,0.7,0.1,1.2,0.4,1.6s0.7,0.5,1.2,0.5c0.5,0,0.9-0.2,1.2-0.5
		c0.3-0.4,0.4-0.9,0.4-1.6c0-0.7-0.1-1.2-0.4-1.5c-0.3-0.4-0.7-0.5-1.2-0.5c-0.5,0-0.9,0.2-1.2,0.5
		C637.7,330.8,637.6,331.3,637.6,332z"/>
	<path id="XMLID_220_" class="st16" d="M616.9,341.6h2c0.9,0,1.6,0.1,2.1,0.4c0.4,0.3,0.6,0.7,0.6,1.3c0,0.4-0.1,0.8-0.4,1
		c-0.2,0.3-0.6,0.5-1,0.5v0c1.1,0.2,1.6,0.8,1.6,1.7c0,0.6-0.2,1.1-0.6,1.5c-0.4,0.4-1,0.5-1.8,0.5h-2.5V341.6z M617.8,344.6h1.4
		c0.6,0,1-0.1,1.3-0.3c0.3-0.2,0.4-0.5,0.4-0.9c0-0.4-0.1-0.7-0.4-0.9c-0.3-0.2-0.7-0.3-1.4-0.3h-1.2V344.6z M617.8,345.3v2.7h1.5
		c0.6,0,1-0.1,1.3-0.3c0.3-0.2,0.4-0.6,0.4-1c0-0.4-0.1-0.8-0.4-1s-0.8-0.3-1.4-0.3H617.8z"/>
	<path id="XMLID_224_" class="st16" d="M628.1,346c0,0.9-0.2,1.6-0.7,2c-0.4,0.5-1,0.7-1.8,0.7c-0.5,0-0.9-0.1-1.3-0.3
		s-0.7-0.5-0.9-1c-0.2-0.4-0.3-0.9-0.3-1.5c0-0.9,0.2-1.6,0.7-2c0.4-0.5,1-0.7,1.8-0.7c0.7,0,1.3,0.2,1.8,0.7
		C627.9,344.5,628.1,345.2,628.1,346z M624.1,346c0,0.7,0.1,1.2,0.4,1.6s0.7,0.5,1.2,0.5c0.5,0,0.9-0.2,1.2-0.5
		c0.3-0.4,0.4-0.9,0.4-1.6c0-0.7-0.1-1.2-0.4-1.5c-0.3-0.4-0.7-0.5-1.2-0.5c-0.5,0-0.9,0.2-1.2,0.5
		C624.2,344.8,624.1,345.3,624.1,346z"/>
	<path id="XMLID_227_" class="st16" d="M631.4,348.1c0.1,0,0.3,0,0.4,0c0.1,0,0.2,0,0.3-0.1v0.6c-0.1,0-0.2,0.1-0.4,0.1
		c-0.2,0-0.3,0-0.5,0c-1,0-1.6-0.5-1.6-1.6V344H629v-0.4l0.8-0.3l0.3-1.1h0.5v1.2h1.6v0.6h-1.6v3.1c0,0.3,0.1,0.6,0.2,0.7
		C630.9,348,631.1,348.1,631.4,348.1z"/>
	<path id="XMLID_229_" class="st16" d="M637.9,346c0,0.9-0.2,1.6-0.7,2c-0.4,0.5-1,0.7-1.8,0.7c-0.5,0-0.9-0.1-1.3-0.3
		s-0.7-0.5-0.9-1c-0.2-0.4-0.3-0.9-0.3-1.5c0-0.9,0.2-1.6,0.7-2c0.4-0.5,1-0.7,1.8-0.7c0.7,0,1.3,0.2,1.8,0.7
		C637.7,344.5,637.9,345.2,637.9,346z M636.2,342.6c-0.1,0-0.3,0-0.4-0.1c-0.1-0.1-0.3-0.1-0.4-0.2c-0.1-0.1-0.3-0.1-0.4-0.2
		c-0.1-0.1-0.2-0.1-0.3-0.1c-0.2,0-0.3,0-0.4,0.1s-0.1,0.2-0.2,0.4h-0.5c0-0.4,0.2-0.7,0.3-0.9c0.2-0.2,0.4-0.3,0.7-0.3
		c0.1,0,0.3,0,0.4,0.1c0.1,0.1,0.3,0.1,0.4,0.2c0.1,0.1,0.2,0.1,0.4,0.2c0.1,0.1,0.2,0.1,0.3,0.1c0.2,0,0.3,0,0.4-0.1
		c0.1-0.1,0.1-0.2,0.2-0.4h0.5c0,0.4-0.2,0.7-0.3,0.9C636.8,342.5,636.5,342.6,636.2,342.6z M633.9,346c0,0.7,0.1,1.2,0.4,1.6
		s0.7,0.5,1.2,0.5c0.5,0,0.9-0.2,1.2-0.5c0.3-0.4,0.4-0.9,0.4-1.6c0-0.7-0.1-1.2-0.4-1.5c-0.3-0.4-0.7-0.5-1.2-0.5
		c-0.5,0-0.9,0.2-1.2,0.5C634,344.8,633.9,345.3,633.9,346z"/>
	<path id="XMLID_233_" class="st16" d="M641.8,348.8c-0.8,0-1.4-0.2-1.9-0.7c-0.5-0.5-0.7-1.2-0.7-2c0-0.9,0.2-1.5,0.6-2.1
		s1-0.8,1.7-0.8c0.7,0,1.2,0.2,1.6,0.7c0.4,0.4,0.6,1,0.6,1.7v0.5h-3.7c0,0.6,0.2,1.1,0.5,1.4c0.3,0.3,0.7,0.5,1.3,0.5
		c0.6,0,1.1-0.1,1.7-0.4v0.7c-0.3,0.1-0.6,0.2-0.8,0.3C642.5,348.8,642.2,348.8,641.8,348.8z M641.6,343.9c-0.4,0-0.8,0.1-1,0.4
		c-0.3,0.3-0.4,0.7-0.5,1.2h2.8c0-0.5-0.1-0.9-0.3-1.2C642.3,344.1,642,343.9,641.6,343.9z"/>
	<path id="XMLID_236_" class="st16" d="M648.8,347.2c0,0.5-0.2,0.9-0.6,1.2s-0.9,0.4-1.6,0.4c-0.7,0-1.3-0.1-1.7-0.3v-0.8
		c0.3,0.1,0.5,0.2,0.8,0.3c0.3,0.1,0.6,0.1,0.9,0.1c0.4,0,0.7-0.1,1-0.2c0.2-0.1,0.3-0.3,0.3-0.6c0-0.2-0.1-0.4-0.3-0.5
		c-0.2-0.1-0.5-0.3-1.1-0.5c-0.5-0.2-0.9-0.3-1.1-0.5c-0.2-0.1-0.4-0.3-0.5-0.5s-0.2-0.4-0.2-0.6c0-0.4,0.2-0.8,0.5-1
		c0.4-0.3,0.8-0.4,1.5-0.4c0.6,0,1.1,0.1,1.7,0.4l-0.3,0.7c-0.5-0.2-1-0.3-1.5-0.3c-0.4,0-0.7,0.1-0.9,0.2s-0.3,0.3-0.3,0.5
		c0,0.1,0,0.3,0.1,0.4s0.2,0.2,0.4,0.3c0.2,0.1,0.5,0.2,0.9,0.4c0.6,0.2,1.1,0.5,1.3,0.7C648.7,346.6,648.8,346.9,648.8,347.2z"/>
	<path id="XMLID_238_" class="st16" d="M617.8,359.7v3h-0.8v-7.1h2c0.9,0,1.5,0.2,1.9,0.5c0.4,0.3,0.6,0.8,0.6,1.5
		c0,0.9-0.5,1.6-1.4,1.9l1.9,3.2h-1l-1.7-3H617.8z M617.8,359h1.1c0.6,0,1-0.1,1.3-0.3c0.3-0.2,0.4-0.6,0.4-1c0-0.5-0.1-0.8-0.4-1
		s-0.7-0.3-1.3-0.3h-1.1V359z"/>
	<path id="XMLID_241_" class="st16" d="M626.5,362.7l-0.2-0.8h0c-0.3,0.3-0.5,0.6-0.8,0.7c-0.3,0.1-0.6,0.2-1,0.2
		c-0.5,0-0.9-0.1-1.2-0.4c-0.3-0.3-0.5-0.7-0.5-1.2c0-1.1,0.9-1.6,2.6-1.7l0.9,0v-0.3c0-0.4-0.1-0.7-0.3-0.9
		c-0.2-0.2-0.5-0.3-0.9-0.3c-0.4,0-1,0.1-1.5,0.4l-0.2-0.6c0.3-0.1,0.6-0.3,0.9-0.3c0.3-0.1,0.6-0.1,0.9-0.1c0.6,0,1.1,0.1,1.4,0.4
		s0.5,0.7,0.5,1.4v3.7H626.5z M624.7,362.1c0.5,0,0.9-0.1,1.2-0.4s0.4-0.7,0.4-1.2v-0.5l-0.8,0c-0.6,0-1.1,0.1-1.4,0.3
		c-0.3,0.2-0.4,0.5-0.4,0.8c0,0.3,0.1,0.5,0.3,0.7C624.1,362.1,624.4,362.1,624.7,362.1z"/>
	<path id="XMLID_244_" class="st16" d="M632.6,362L632.6,362c-0.4,0.5-1,0.8-1.7,0.8c-0.7,0-1.2-0.2-1.6-0.7c-0.4-0.5-0.6-1.2-0.6-2
		s0.2-1.6,0.6-2.1s0.9-0.7,1.6-0.7c0.7,0,1.3,0.3,1.7,0.8h0.1l0-0.4l0-0.4v-2.2h0.8v7.6h-0.7L632.6,362z M631,362.1
		c0.6,0,1-0.2,1.2-0.5c0.2-0.3,0.4-0.8,0.4-1.5V360c0-0.8-0.1-1.3-0.4-1.6c-0.3-0.3-0.7-0.5-1.2-0.5c-0.5,0-0.8,0.2-1.1,0.6
		c-0.3,0.4-0.4,0.9-0.4,1.6c0,0.7,0.1,1.2,0.4,1.5C630.2,361.9,630.5,362.1,631,362.1z"/>
	<path id="XMLID_247_" class="st16" d="M635.2,355.9c0-0.2,0-0.3,0.1-0.4c0.1-0.1,0.2-0.1,0.3-0.1c0.1,0,0.2,0,0.3,0.1
		c0.1,0.1,0.1,0.2,0.1,0.4s0,0.3-0.1,0.4c-0.1,0.1-0.2,0.1-0.3,0.1c-0.1,0-0.3,0-0.3-0.1C635.2,356.2,635.2,356.1,635.2,355.9z
		 M636,362.7h-0.8v-5.4h0.8V362.7z"/>
	<path id="XMLID_250_" class="st16" d="M642.5,360c0,0.9-0.2,1.6-0.7,2c-0.4,0.5-1,0.7-1.8,0.7c-0.5,0-0.9-0.1-1.3-0.3
		s-0.7-0.5-0.9-1c-0.2-0.4-0.3-0.9-0.3-1.5c0-0.9,0.2-1.6,0.7-2c0.4-0.5,1-0.7,1.8-0.7c0.7,0,1.3,0.2,1.8,0.7
		C642.3,358.5,642.5,359.2,642.5,360z M638.4,360c0,0.7,0.1,1.2,0.4,1.6s0.7,0.5,1.2,0.5c0.5,0,0.9-0.2,1.2-0.5
		c0.3-0.4,0.4-0.9,0.4-1.6c0-0.7-0.1-1.2-0.4-1.5c-0.3-0.4-0.7-0.5-1.2-0.5c-0.5,0-0.9,0.2-1.2,0.5
		C638.6,358.8,638.4,359.3,638.4,360z"/>
	<path id="XMLID_253_" class="st16" d="M646.9,355.6h2c0.9,0,1.6,0.1,2.1,0.4c0.4,0.3,0.6,0.7,0.6,1.3c0,0.4-0.1,0.8-0.4,1
		c-0.2,0.3-0.6,0.5-1,0.5v0c1.1,0.2,1.6,0.8,1.6,1.7c0,0.6-0.2,1.1-0.6,1.5c-0.4,0.4-1,0.5-1.8,0.5h-2.5V355.6z M647.7,358.6h1.4
		c0.6,0,1-0.1,1.3-0.3c0.3-0.2,0.4-0.5,0.4-0.9c0-0.4-0.1-0.7-0.4-0.9c-0.3-0.2-0.7-0.3-1.4-0.3h-1.2V358.6z M647.7,359.3v2.7h1.5
		c0.6,0,1-0.1,1.3-0.3c0.3-0.2,0.4-0.6,0.4-1c0-0.4-0.1-0.8-0.4-1s-0.8-0.3-1.4-0.3H647.7z"/>
	<path id="XMLID_257_" class="st16" d="M654.2,357.4v3.5c0,0.4,0.1,0.8,0.3,1c0.2,0.2,0.5,0.3,0.9,0.3c0.6,0,1-0.2,1.2-0.5
		s0.4-0.8,0.4-1.5v-2.8h0.8v5.4h-0.7l-0.1-0.7h0c-0.2,0.3-0.4,0.5-0.7,0.6c-0.3,0.1-0.6,0.2-1,0.2c-0.7,0-1.1-0.2-1.5-0.5
		c-0.3-0.3-0.5-0.8-0.5-1.5v-3.5H654.2z"/>
	<path id="XMLID_259_" class="st16" d="M661.5,362.1c0.1,0,0.3,0,0.4,0c0.1,0,0.2,0,0.3-0.1v0.6c-0.1,0-0.2,0.1-0.4,0.1
		c-0.2,0-0.3,0-0.5,0c-1,0-1.6-0.5-1.6-1.6V358h-0.8v-0.4l0.8-0.3l0.3-1.1h0.5v1.2h1.6v0.6h-1.6v3.1c0,0.3,0.1,0.6,0.2,0.7
		C661.1,362,661.3,362.1,661.5,362.1z"/>
	<path id="XMLID_261_" class="st16" d="M665.6,362.1c0.1,0,0.3,0,0.4,0c0.1,0,0.2,0,0.3-0.1v0.6c-0.1,0-0.2,0.1-0.4,0.1
		c-0.2,0-0.3,0-0.5,0c-1,0-1.6-0.5-1.6-1.6V358h-0.8v-0.4l0.8-0.3l0.3-1.1h0.5v1.2h1.6v0.6h-1.6v3.1c0,0.3,0.1,0.6,0.2,0.7
		C665.1,362,665.3,362.1,665.6,362.1z"/>
	<path id="XMLID_263_" class="st16" d="M672.1,360c0,0.9-0.2,1.6-0.7,2c-0.4,0.5-1,0.7-1.8,0.7c-0.5,0-0.9-0.1-1.3-0.3
		s-0.7-0.5-0.9-1c-0.2-0.4-0.3-0.9-0.3-1.5c0-0.9,0.2-1.6,0.7-2c0.4-0.5,1-0.7,1.8-0.7c0.7,0,1.3,0.2,1.8,0.7
		C671.9,358.5,672.1,359.2,672.1,360z M668.1,360c0,0.7,0.1,1.2,0.4,1.6s0.7,0.5,1.2,0.5c0.5,0,0.9-0.2,1.2-0.5
		c0.3-0.4,0.4-0.9,0.4-1.6c0-0.7-0.1-1.2-0.4-1.5c-0.3-0.4-0.7-0.5-1.2-0.5c-0.5,0-0.9,0.2-1.2,0.5
		C668.2,358.8,668.1,359.3,668.1,360z"/>
	<path id="XMLID_266_" class="st16" d="M677.4,362.7v-3.5c0-0.4-0.1-0.8-0.3-1c-0.2-0.2-0.5-0.3-0.9-0.3c-0.6,0-1,0.2-1.2,0.5
		c-0.3,0.3-0.4,0.8-0.4,1.5v2.8h-0.8v-5.4h0.7l0.1,0.7h0c0.2-0.3,0.4-0.5,0.7-0.6c0.3-0.1,0.6-0.2,1-0.2c0.6,0,1.1,0.2,1.5,0.5
		c0.3,0.3,0.5,0.8,0.5,1.5v3.5H677.4z"/>
	<path id="XMLID_268_" class="st16" d="M683.4,361.2c0,0.5-0.2,0.9-0.6,1.2s-0.9,0.4-1.6,0.4c-0.7,0-1.3-0.1-1.7-0.3v-0.8
		c0.3,0.1,0.5,0.2,0.8,0.3c0.3,0.1,0.6,0.1,0.9,0.1c0.4,0,0.7-0.1,1-0.2c0.2-0.1,0.3-0.3,0.3-0.6c0-0.2-0.1-0.4-0.3-0.5
		c-0.2-0.1-0.5-0.3-1.1-0.5c-0.5-0.2-0.9-0.3-1.1-0.5c-0.2-0.1-0.4-0.3-0.5-0.5s-0.2-0.4-0.2-0.6c0-0.4,0.2-0.8,0.5-1
		c0.4-0.3,0.8-0.4,1.5-0.4c0.6,0,1.1,0.1,1.7,0.4l-0.3,0.7c-0.5-0.2-1-0.3-1.5-0.3c-0.4,0-0.7,0.1-0.9,0.2s-0.3,0.3-0.3,0.5
		c0,0.1,0,0.3,0.1,0.4s0.2,0.2,0.4,0.3c0.2,0.1,0.5,0.2,0.9,0.4c0.6,0.2,1.1,0.5,1.3,0.7C683.3,360.6,683.4,360.9,683.4,361.2z"/>
	<path id="XMLID_270_" class="st16" d="M620,370.2c-0.8,0-1.4,0.3-1.9,0.8c-0.5,0.5-0.7,1.2-0.7,2.1c0,0.9,0.2,1.7,0.7,2.2
		c0.4,0.5,1.1,0.8,1.9,0.8c0.5,0,1.1-0.1,1.7-0.3v0.7c-0.5,0.2-1.1,0.3-1.8,0.3c-1.1,0-1.9-0.3-2.4-1s-0.9-1.5-0.9-2.7
		c0-0.7,0.1-1.4,0.4-1.9c0.3-0.6,0.7-1,1.2-1.3c0.5-0.3,1.1-0.4,1.8-0.4c0.7,0,1.4,0.1,2,0.4l-0.4,0.7
		C621.1,370.3,620.5,370.2,620,370.2z"/>
	<path id="XMLID_272_" class="st16" d="M627,376.7v-3.5c0-0.4-0.1-0.8-0.3-1c-0.2-0.2-0.5-0.3-0.9-0.3c-0.6,0-1,0.2-1.2,0.5
		s-0.4,0.8-0.4,1.5v2.8h-0.8v-7.6h0.8v2.3c0,0.3,0,0.5,0,0.7h0c0.2-0.3,0.4-0.5,0.7-0.6c0.3-0.1,0.6-0.2,1-0.2
		c0.7,0,1.1,0.2,1.5,0.5c0.3,0.3,0.5,0.8,0.5,1.5v3.5H627z"/>
	<path id="XMLID_274_" class="st16" d="M631.9,376.8c-0.8,0-1.4-0.2-1.9-0.7c-0.5-0.5-0.7-1.2-0.7-2c0-0.9,0.2-1.5,0.6-2.1
		s1-0.8,1.7-0.8c0.7,0,1.2,0.2,1.6,0.7c0.4,0.4,0.6,1,0.6,1.7v0.5h-3.7c0,0.6,0.2,1.1,0.5,1.4c0.3,0.3,0.7,0.5,1.3,0.5
		c0.6,0,1.1-0.1,1.7-0.4v0.7c-0.3,0.1-0.6,0.2-0.8,0.3C632.6,376.8,632.3,376.8,631.9,376.8z M631.7,371.9c-0.4,0-0.8,0.1-1,0.4
		c-0.3,0.3-0.4,0.7-0.5,1.2h2.8c0-0.5-0.1-0.9-0.3-1.2C632.4,372.1,632.1,371.9,631.7,371.9z"/>
	<path id="XMLID_277_" class="st16" d="M637.6,376.8c-0.8,0-1.4-0.2-1.8-0.7c-0.4-0.5-0.6-1.2-0.6-2c0-0.9,0.2-1.6,0.6-2.1
		c0.4-0.5,1-0.7,1.8-0.7c0.3,0,0.5,0,0.8,0.1c0.3,0.1,0.5,0.1,0.6,0.2l-0.2,0.7c-0.2-0.1-0.4-0.1-0.6-0.2c-0.2,0-0.4-0.1-0.6-0.1
		c-1.1,0-1.6,0.7-1.6,2.1c0,0.7,0.1,1.2,0.4,1.5c0.3,0.4,0.7,0.5,1.2,0.5c0.4,0,0.9-0.1,1.4-0.3v0.7
		C638.6,376.7,638.2,376.8,637.6,376.8z"/>
	<path id="XMLID_279_" class="st16" d="M641.2,374c0.1-0.2,0.4-0.5,0.6-0.8l1.7-1.8h1l-2.2,2.3l2.3,3.1h-1l-1.9-2.5l-0.6,0.5v2h-0.8
		v-7.6h0.8v4C641.2,373.3,641.2,373.6,641.2,374L641.2,374z"/>
	<path id="XMLID_281_" class="st16" d="M648.4,371.3c0.7,0,1.2,0.2,1.6,0.7c0.4,0.5,0.6,1.2,0.6,2s-0.2,1.6-0.6,2
		c-0.4,0.5-0.9,0.7-1.6,0.7c-0.3,0-0.7-0.1-1-0.2c-0.3-0.1-0.5-0.3-0.7-0.6h-0.1l-0.2,0.7h-0.6v-7.6h0.8v1.8c0,0.4,0,0.8,0,1.1h0
		C647.1,371.5,647.7,371.3,648.4,371.3z M648.3,371.9c-0.6,0-1,0.2-1.2,0.5c-0.2,0.3-0.4,0.9-0.4,1.6s0.1,1.3,0.4,1.6
		c0.3,0.3,0.7,0.5,1.2,0.5c0.5,0,0.9-0.2,1.1-0.5c0.2-0.4,0.4-0.9,0.4-1.6c0-0.7-0.1-1.2-0.4-1.6S648.8,371.9,648.3,371.9z"/>
	<path id="XMLID_284_" class="st16" d="M656.9,374c0,0.9-0.2,1.6-0.7,2c-0.4,0.5-1,0.7-1.8,0.7c-0.5,0-0.9-0.1-1.3-0.3
		s-0.7-0.5-0.9-1c-0.2-0.4-0.3-0.9-0.3-1.5c0-0.9,0.2-1.6,0.7-2c0.4-0.5,1-0.7,1.8-0.7c0.7,0,1.3,0.2,1.8,0.7
		C656.6,372.5,656.9,373.2,656.9,374z M652.8,374c0,0.7,0.1,1.2,0.4,1.6s0.7,0.5,1.2,0.5c0.5,0,0.9-0.2,1.2-0.5
		c0.3-0.4,0.4-0.9,0.4-1.6c0-0.7-0.1-1.2-0.4-1.5c-0.3-0.4-0.7-0.5-1.2-0.5c-0.5,0-0.9,0.2-1.2,0.5
		C652.9,372.8,652.8,373.3,652.8,374z"/>
	<path id="XMLID_287_" class="st16" d="M659.5,374l-1.9-2.6h0.9l1.4,2.1l1.4-2.1h0.9l-1.9,2.6l2,2.7h-0.9l-1.5-2.2l-1.5,2.2h-0.9
		L659.5,374z"/>
	<path id="XMLID_289_" class="st16" d="M665.7,376.8c-0.8,0-1.4-0.2-1.9-0.7c-0.5-0.5-0.7-1.2-0.7-2c0-0.9,0.2-1.5,0.6-2.1
		s1-0.8,1.7-0.8c0.7,0,1.2,0.2,1.6,0.7c0.4,0.4,0.6,1,0.6,1.7v0.5H664c0,0.6,0.2,1.1,0.5,1.4c0.3,0.3,0.7,0.5,1.3,0.5
		c0.6,0,1.1-0.1,1.7-0.4v0.7c-0.3,0.1-0.6,0.2-0.8,0.3C666.4,376.8,666.1,376.8,665.7,376.8z M665.5,371.9c-0.4,0-0.8,0.1-1,0.4
		c-0.3,0.3-0.4,0.7-0.5,1.2h2.8c0-0.5-0.1-0.9-0.3-1.2C666.2,372.1,665.9,371.9,665.5,371.9z"/>
	<path id="XMLID_292_" class="st16" d="M672.7,375.2c0,0.5-0.2,0.9-0.6,1.2s-0.9,0.4-1.6,0.4c-0.7,0-1.3-0.1-1.7-0.3v-0.8
		c0.3,0.1,0.5,0.2,0.8,0.3c0.3,0.1,0.6,0.1,0.9,0.1c0.4,0,0.7-0.1,1-0.2c0.2-0.1,0.3-0.3,0.3-0.6c0-0.2-0.1-0.4-0.3-0.5
		c-0.2-0.1-0.5-0.3-1.1-0.5c-0.5-0.2-0.9-0.3-1.1-0.5c-0.2-0.1-0.4-0.3-0.5-0.5s-0.2-0.4-0.2-0.6c0-0.4,0.2-0.8,0.5-1
		c0.4-0.3,0.8-0.4,1.5-0.4c0.6,0,1.1,0.1,1.7,0.4l-0.3,0.7c-0.5-0.2-1-0.3-1.5-0.3c-0.4,0-0.7,0.1-0.9,0.2s-0.3,0.3-0.3,0.5
		c0,0.1,0,0.3,0.1,0.4s0.2,0.2,0.4,0.3c0.2,0.1,0.5,0.2,0.9,0.4c0.6,0.2,1.1,0.5,1.3,0.7C672.6,374.6,672.7,374.9,672.7,375.2z"/>
	<path id="XMLID_294_" class="st16" d="M616.9,390.7v-7.1h0.8v6.4h3.1v0.8H616.9z"/>
	<path id="XMLID_296_" class="st16" d="M622.2,383.9c0-0.2,0-0.3,0.1-0.4c0.1-0.1,0.2-0.1,0.3-0.1c0.1,0,0.2,0,0.3,0.1
		c0.1,0.1,0.1,0.2,0.1,0.4s0,0.3-0.1,0.4c-0.1,0.1-0.2,0.1-0.3,0.1c-0.1,0-0.3,0-0.3-0.1C622.2,384.2,622.2,384.1,622.2,383.9z
		 M623.1,390.7h-0.8v-5.4h0.8V390.7z"/>
	<path id="XMLID_299_" class="st16" d="M628.6,390.7v-3.5c0-0.4-0.1-0.8-0.3-1c-0.2-0.2-0.5-0.3-0.9-0.3c-0.6,0-1,0.2-1.2,0.5
		c-0.3,0.3-0.4,0.8-0.4,1.5v2.8h-0.8v-5.4h0.7l0.1,0.7h0c0.2-0.3,0.4-0.5,0.7-0.6c0.3-0.1,0.6-0.2,1-0.2c0.6,0,1.1,0.2,1.5,0.5
		c0.3,0.3,0.5,0.8,0.5,1.5v3.5H628.6z"/>
	<path id="XMLID_301_" class="st16" d="M632,388c0.1-0.2,0.4-0.5,0.6-0.8l1.7-1.8h1l-2.2,2.3l2.3,3.1h-1l-1.9-2.5l-0.6,0.5v2h-0.8
		v-7.6h0.8v4C632,387.3,632,387.6,632,388L632,388z"/>
	<path id="XMLID_303_" class="st16" d="M640.3,389.2c0,0.5-0.2,0.9-0.6,1.2s-0.9,0.4-1.6,0.4c-0.7,0-1.3-0.1-1.7-0.3v-0.8
		c0.3,0.1,0.5,0.2,0.8,0.3c0.3,0.1,0.6,0.1,0.9,0.1c0.4,0,0.7-0.1,1-0.2c0.2-0.1,0.3-0.3,0.3-0.6c0-0.2-0.1-0.4-0.3-0.5
		c-0.2-0.1-0.5-0.3-1.1-0.5c-0.5-0.2-0.9-0.3-1.1-0.5c-0.2-0.1-0.4-0.3-0.5-0.5s-0.2-0.4-0.2-0.6c0-0.4,0.2-0.8,0.5-1
		c0.4-0.3,0.8-0.4,1.5-0.4c0.6,0,1.1,0.1,1.7,0.4l-0.3,0.7c-0.5-0.2-1-0.3-1.5-0.3c-0.4,0-0.7,0.1-0.9,0.2s-0.3,0.3-0.3,0.5
		c0,0.1,0,0.3,0.1,0.4s0.2,0.2,0.4,0.3c0.2,0.1,0.5,0.2,0.9,0.4c0.6,0.2,1.1,0.5,1.3,0.7C640.2,388.6,640.3,388.9,640.3,389.2z"/>
	<path id="XMLID_305_" class="st16" d="M620,398.2c-0.8,0-1.4,0.3-1.9,0.8c-0.5,0.5-0.7,1.2-0.7,2.1c0,0.9,0.2,1.7,0.7,2.2
		c0.4,0.5,1.1,0.8,1.9,0.8c0.5,0,1.1-0.1,1.7-0.3v0.7c-0.5,0.2-1.1,0.3-1.8,0.3c-1.1,0-1.9-0.3-2.4-1s-0.9-1.5-0.9-2.7
		c0-0.7,0.1-1.4,0.4-1.9c0.3-0.6,0.7-1,1.2-1.3c0.5-0.3,1.1-0.4,1.8-0.4c0.7,0,1.4,0.1,2,0.4l-0.4,0.7
		C621.1,398.3,620.5,398.2,620,398.2z"/>
	<path id="XMLID_307_" class="st16" d="M626.7,404.7l-0.2-0.8h0c-0.3,0.3-0.5,0.6-0.8,0.7c-0.3,0.1-0.6,0.2-1,0.2
		c-0.5,0-0.9-0.1-1.2-0.4c-0.3-0.3-0.5-0.7-0.5-1.2c0-1.1,0.9-1.6,2.6-1.7l0.9,0v-0.3c0-0.4-0.1-0.7-0.3-0.9
		c-0.2-0.2-0.5-0.3-0.9-0.3c-0.4,0-1,0.1-1.5,0.4l-0.2-0.6c0.3-0.1,0.6-0.3,0.9-0.3c0.3-0.1,0.6-0.1,0.9-0.1c0.6,0,1.1,0.1,1.4,0.4
		s0.5,0.7,0.5,1.4v3.7H626.7z M624.8,404.1c0.5,0,0.9-0.1,1.2-0.4s0.4-0.7,0.4-1.2v-0.5l-0.8,0c-0.6,0-1.1,0.1-1.4,0.3
		c-0.3,0.2-0.4,0.5-0.4,0.8c0,0.3,0.1,0.5,0.3,0.7C624.3,404.1,624.5,404.1,624.8,404.1z"/>
	<path id="XMLID_310_" class="st16" d="M635.9,404.7v-3.5c0-0.4-0.1-0.7-0.3-1c-0.2-0.2-0.5-0.3-0.8-0.3c-0.5,0-0.9,0.1-1.1,0.4
		c-0.2,0.3-0.4,0.7-0.4,1.3v3h-0.8v-3.5c0-0.4-0.1-0.7-0.3-1c-0.2-0.2-0.5-0.3-0.9-0.3c-0.5,0-0.9,0.2-1.1,0.5
		c-0.2,0.3-0.4,0.8-0.4,1.5v2.8h-0.8v-5.4h0.7l0.1,0.7h0c0.2-0.3,0.4-0.5,0.6-0.6s0.6-0.2,0.9-0.2c0.8,0,1.4,0.3,1.6,0.9h0
		c0.2-0.3,0.4-0.5,0.7-0.7s0.6-0.2,1-0.2c0.6,0,1.1,0.2,1.4,0.5c0.3,0.3,0.5,0.8,0.5,1.5v3.5H635.9z"/>
	<path id="XMLID_312_" class="st16" d="M641,404.8c-0.3,0-0.7-0.1-1-0.2c-0.3-0.1-0.5-0.3-0.7-0.6h-0.1c0,0.3,0.1,0.6,0.1,0.9v2.2
		h-0.8v-7.8h0.7l0.1,0.7h0c0.2-0.3,0.5-0.5,0.7-0.6c0.3-0.1,0.6-0.2,1-0.2c0.7,0,1.3,0.2,1.6,0.7s0.6,1.2,0.6,2c0,0.9-0.2,1.6-0.6,2
		C642.3,404.6,641.7,404.8,641,404.8z M640.9,399.9c-0.5,0-0.9,0.2-1.2,0.5s-0.4,0.8-0.4,1.4v0.2c0,0.8,0.1,1.3,0.4,1.6
		c0.3,0.3,0.7,0.5,1.2,0.5c0.5,0,0.8-0.2,1.1-0.6c0.3-0.4,0.4-0.9,0.4-1.5c0-0.7-0.1-1.2-0.4-1.5
		C641.7,400.1,641.4,399.9,640.9,399.9z"/>
	<path id="XMLID_315_" class="st16" d="M649.5,402c0,0.9-0.2,1.6-0.7,2c-0.4,0.5-1,0.7-1.8,0.7c-0.5,0-0.9-0.1-1.3-0.3
		s-0.7-0.5-0.9-1c-0.2-0.4-0.3-0.9-0.3-1.5c0-0.9,0.2-1.6,0.7-2c0.4-0.5,1-0.7,1.8-0.7c0.7,0,1.3,0.2,1.8,0.7
		C649.3,400.5,649.5,401.2,649.5,402z M645.4,402c0,0.7,0.1,1.2,0.4,1.6s0.7,0.5,1.2,0.5c0.5,0,0.9-0.2,1.2-0.5
		c0.3-0.4,0.4-0.9,0.4-1.6c0-0.7-0.1-1.2-0.4-1.5c-0.3-0.4-0.7-0.5-1.2-0.5c-0.5,0-0.9,0.2-1.2,0.5
		C645.5,400.8,645.4,401.3,645.4,402z"/>
	<path id="XMLID_318_" class="st16" d="M654.5,403.2c0,0.5-0.2,0.9-0.6,1.2s-0.9,0.4-1.6,0.4c-0.7,0-1.3-0.1-1.7-0.3v-0.8
		c0.3,0.1,0.5,0.2,0.8,0.3c0.3,0.1,0.6,0.1,0.9,0.1c0.4,0,0.7-0.1,1-0.2c0.2-0.1,0.3-0.3,0.3-0.6c0-0.2-0.1-0.4-0.3-0.5
		c-0.2-0.1-0.5-0.3-1.1-0.5c-0.5-0.2-0.9-0.3-1.1-0.5c-0.2-0.1-0.4-0.3-0.5-0.5s-0.2-0.4-0.2-0.6c0-0.4,0.2-0.8,0.5-1
		c0.4-0.3,0.8-0.4,1.5-0.4c0.6,0,1.1,0.1,1.7,0.4l-0.3,0.7c-0.5-0.2-1-0.3-1.5-0.3c-0.4,0-0.7,0.1-0.9,0.2s-0.3,0.3-0.3,0.5
		c0,0.1,0,0.3,0.1,0.4s0.2,0.2,0.4,0.3c0.2,0.1,0.5,0.2,0.9,0.4c0.6,0.2,1.1,0.5,1.3,0.7C654.4,402.6,654.5,402.9,654.5,403.2z"/>
	<path id="XMLID_320_" class="st16" d="M662.3,404L662.3,404c-0.4,0.5-1,0.8-1.7,0.8c-0.7,0-1.2-0.2-1.6-0.7c-0.4-0.5-0.6-1.2-0.6-2
		s0.2-1.6,0.6-2.1s0.9-0.7,1.6-0.7c0.7,0,1.3,0.3,1.7,0.8h0.1l0-0.4l0-0.4v-2.2h0.8v7.6h-0.7L662.3,404z M660.7,404.1
		c0.6,0,1-0.2,1.2-0.5c0.2-0.3,0.4-0.8,0.4-1.5V402c0-0.8-0.1-1.3-0.4-1.6c-0.3-0.3-0.7-0.5-1.2-0.5c-0.5,0-0.8,0.2-1.1,0.6
		c-0.3,0.4-0.4,0.9-0.4,1.6c0,0.7,0.1,1.2,0.4,1.5C659.8,403.9,660.2,404.1,660.7,404.1z"/>
	<path id="XMLID_323_" class="st16" d="M667.2,404.8c-0.8,0-1.4-0.2-1.9-0.7c-0.5-0.5-0.7-1.2-0.7-2c0-0.9,0.2-1.5,0.6-2.1
		s1-0.8,1.7-0.8c0.7,0,1.2,0.2,1.6,0.7c0.4,0.4,0.6,1,0.6,1.7v0.5h-3.7c0,0.6,0.2,1.1,0.5,1.4c0.3,0.3,0.7,0.5,1.3,0.5
		c0.6,0,1.1-0.1,1.7-0.4v0.7c-0.3,0.1-0.6,0.2-0.8,0.3C667.8,404.8,667.5,404.8,667.2,404.8z M667,399.9c-0.4,0-0.8,0.1-1,0.4
		c-0.3,0.3-0.4,0.7-0.5,1.2h2.8c0-0.5-0.1-0.9-0.3-1.2C667.7,400.1,667.4,399.9,667,399.9z"/>
	<path id="XMLID_326_" class="st16" d="M675.6,404.7h-0.8v-6.4h-2.3v-0.7h5.4v0.7h-2.3V404.7z"/>
	<path id="XMLID_328_" class="st16" d="M680.6,404.8c-0.8,0-1.4-0.2-1.9-0.7c-0.5-0.5-0.7-1.2-0.7-2c0-0.9,0.2-1.5,0.6-2.1
		s1-0.8,1.7-0.8c0.7,0,1.2,0.2,1.6,0.7c0.4,0.4,0.6,1,0.6,1.7v0.5h-3.7c0,0.6,0.2,1.1,0.5,1.4c0.3,0.3,0.7,0.5,1.3,0.5
		c0.6,0,1.1-0.1,1.7-0.4v0.7c-0.3,0.1-0.6,0.2-0.8,0.3C681.2,404.8,680.9,404.8,680.6,404.8z M680.3,399.9c-0.4,0-0.8,0.1-1,0.4
		c-0.3,0.3-0.4,0.7-0.5,1.2h2.8c0-0.5-0.1-0.9-0.3-1.2C681.1,400.1,680.8,399.9,680.3,399.9z"/>
	<path id="XMLID_331_" class="st16" d="M685.4,402l-1.9-2.6h0.9l1.4,2.1l1.4-2.1h0.9l-1.9,2.6l2,2.7h-0.9l-1.5-2.2l-1.5,2.2h-0.9
		L685.4,402z"/>
	<path id="XMLID_333_" class="st16" d="M691.6,404.1c0.1,0,0.3,0,0.4,0c0.1,0,0.2,0,0.3-0.1v0.6c-0.1,0-0.2,0.1-0.4,0.1
		c-0.2,0-0.3,0-0.5,0c-1,0-1.6-0.5-1.6-1.6V400h-0.8v-0.4l0.8-0.3l0.3-1.1h0.5v1.2h1.6v0.6h-1.6v3.1c0,0.3,0.1,0.6,0.2,0.7
		C691.1,404,691.4,404.1,691.6,404.1z"/>
	<path id="XMLID_335_" class="st16" d="M698.2,402c0,0.9-0.2,1.6-0.7,2c-0.4,0.5-1,0.7-1.8,0.7c-0.5,0-0.9-0.1-1.3-0.3
		s-0.7-0.5-0.9-1c-0.2-0.4-0.3-0.9-0.3-1.5c0-0.9,0.2-1.6,0.7-2c0.4-0.5,1-0.7,1.8-0.7c0.7,0,1.3,0.2,1.8,0.7
		C697.9,400.5,698.2,401.2,698.2,402z M694.1,402c0,0.7,0.1,1.2,0.4,1.6s0.7,0.5,1.2,0.5c0.5,0,0.9-0.2,1.2-0.5
		c0.3-0.4,0.4-0.9,0.4-1.6c0-0.7-0.1-1.2-0.4-1.5c-0.3-0.4-0.7-0.5-1.2-0.5c-0.5,0-0.9,0.2-1.2,0.5
		C694.2,400.8,694.1,401.3,694.1,402z"/>
	<path id="XMLID_338_" class="st16" d="M621,416.8c0,0.6-0.2,1.1-0.7,1.5c-0.5,0.4-1.1,0.5-1.9,0.5c-0.8,0-1.5-0.1-2-0.3v-0.8
		c0.3,0.1,0.6,0.2,1,0.3c0.3,0.1,0.7,0.1,1,0.1c0.6,0,1-0.1,1.3-0.3c0.3-0.2,0.4-0.5,0.4-0.9c0-0.2,0-0.5-0.1-0.6
		c-0.1-0.2-0.3-0.3-0.5-0.4c-0.2-0.1-0.6-0.3-1.1-0.5c-0.7-0.2-1.1-0.5-1.4-0.8c-0.3-0.3-0.4-0.8-0.4-1.3c0-0.5,0.2-1,0.6-1.3
		c0.4-0.3,1-0.5,1.6-0.5c0.7,0,1.4,0.1,2,0.4l-0.3,0.7c-0.6-0.2-1.2-0.4-1.7-0.4c-0.4,0-0.8,0.1-1,0.3c-0.2,0.2-0.4,0.5-0.4,0.8
		c0,0.2,0,0.5,0.1,0.6c0.1,0.2,0.2,0.3,0.5,0.4c0.2,0.1,0.5,0.3,1,0.4c0.7,0.3,1.3,0.6,1.5,0.9C620.8,415.9,621,416.3,621,416.8z"/>
	<path id="XMLID_340_" class="st16" d="M624.8,418.8c-0.8,0-1.4-0.2-1.9-0.7c-0.5-0.5-0.7-1.2-0.7-2c0-0.9,0.2-1.5,0.6-2.1
		s1-0.8,1.7-0.8c0.7,0,1.2,0.2,1.6,0.7c0.4,0.4,0.6,1,0.6,1.7v0.5h-3.7c0,0.6,0.2,1.1,0.5,1.4c0.3,0.3,0.7,0.5,1.3,0.5
		c0.6,0,1.1-0.1,1.7-0.4v0.7c-0.3,0.1-0.6,0.2-0.8,0.3C625.5,418.8,625.2,418.8,624.8,418.8z M624.6,413.9c-0.4,0-0.8,0.1-1,0.4
		c-0.3,0.3-0.4,0.7-0.5,1.2h2.8c0-0.5-0.1-0.9-0.3-1.2C625.4,414.1,625,413.9,624.6,413.9z"/>
	<path id="XMLID_343_" class="st16" d="M629.2,418.7h-0.8v-7.6h0.8V418.7z"/>
	<path id="XMLID_345_" class="st16" d="M633.3,418.8c-0.8,0-1.4-0.2-1.9-0.7c-0.5-0.5-0.7-1.2-0.7-2c0-0.9,0.2-1.5,0.6-2.1
		s1-0.8,1.7-0.8c0.7,0,1.2,0.2,1.6,0.7c0.4,0.4,0.6,1,0.6,1.7v0.5h-3.7c0,0.6,0.2,1.1,0.5,1.4c0.3,0.3,0.7,0.5,1.3,0.5
		c0.6,0,1.1-0.1,1.7-0.4v0.7c-0.3,0.1-0.6,0.2-0.8,0.3C634,418.8,633.7,418.8,633.3,418.8z M633.1,413.9c-0.4,0-0.8,0.1-1,0.4
		c-0.3,0.3-0.4,0.7-0.5,1.2h2.8c0-0.5-0.1-0.9-0.3-1.2C633.8,414.1,633.5,413.9,633.1,413.9z"/>
	<path id="XMLID_348_" class="st16" d="M639,418.8c-0.8,0-1.4-0.2-1.8-0.7c-0.4-0.5-0.6-1.2-0.6-2c0-0.9,0.2-1.6,0.6-2.1
		c0.4-0.5,1-0.7,1.8-0.7c0.3,0,0.5,0,0.8,0.1c0.3,0.1,0.5,0.1,0.6,0.2l-0.2,0.7c-0.2-0.1-0.4-0.1-0.6-0.2c-0.2,0-0.4-0.1-0.6-0.1
		c-1.1,0-1.6,0.7-1.6,2.1c0,0.7,0.1,1.2,0.4,1.5c0.3,0.4,0.7,0.5,1.2,0.5c0.4,0,0.9-0.1,1.4-0.3v0.7
		C640,418.7,639.5,418.8,639,418.8z"/>
	<path id="XMLID_350_" class="st16" d="M643.9,418.1c0.1,0,0.3,0,0.4,0c0.1,0,0.2,0,0.3-0.1v0.6c-0.1,0-0.2,0.1-0.4,0.1
		c-0.2,0-0.3,0-0.5,0c-1,0-1.6-0.5-1.6-1.6V414h-0.8v-0.4l0.8-0.3l0.3-1.1h0.5v1.2h1.6v0.6H643v3.1c0,0.3,0.1,0.6,0.2,0.7
		C643.4,418,643.6,418.1,643.9,418.1z"/>
	<path id="XMLID_352_" class="st16" d="M649.5,417.2c0,0.5-0.2,0.9-0.6,1.2s-0.9,0.4-1.6,0.4c-0.7,0-1.3-0.1-1.7-0.3v-0.8
		c0.3,0.1,0.5,0.2,0.8,0.3c0.3,0.1,0.6,0.1,0.9,0.1c0.4,0,0.7-0.1,1-0.2c0.2-0.1,0.3-0.3,0.3-0.6c0-0.2-0.1-0.4-0.3-0.5
		c-0.2-0.1-0.5-0.3-1.1-0.5c-0.5-0.2-0.9-0.3-1.1-0.5c-0.2-0.1-0.4-0.3-0.5-0.5s-0.2-0.4-0.2-0.6c0-0.4,0.2-0.8,0.5-1
		c0.4-0.3,0.8-0.4,1.5-0.4c0.6,0,1.1,0.1,1.7,0.4l-0.3,0.7c-0.5-0.2-1-0.3-1.5-0.3c-0.4,0-0.7,0.1-0.9,0.2s-0.3,0.3-0.3,0.5
		c0,0.1,0,0.3,0.1,0.4s0.2,0.2,0.4,0.3c0.2,0.1,0.5,0.2,0.9,0.4c0.6,0.2,1.1,0.5,1.3,0.7C649.4,416.6,649.5,416.9,649.5,417.2z"/>
</g>
<circle id="XMLID_704_" class="st16" cx="608.5" cy="330.7" r="1.8"/>
<circle id="XMLID_711_" class="st16" cx="608.5" cy="344.7" r="1.8"/>
<circle id="XMLID_714_" class="st16" cx="608.5" cy="358.8" r="1.8"/>
<circle id="XMLID_716_" class="st16" cx="608.5" cy="372.8" r="1.8"/>
<circle id="XMLID_717_" class="st16" cx="608.5" cy="386.8" r="1.8"/>
<circle id="XMLID_718_" class="st16" cx="608.5" cy="400.9" r="1.8"/>
<circle id="XMLID_719_" class="st16" cx="608.5" cy="414.9" r="1.8"/>
</svg>
