<?xml version="1.0" encoding="utf-8"?>
<!-- Generator: Adobe Illustrator 19.0.0, SVG Export Plug-In . SVG Version: 6.00 Build 0)  -->
<svg version="1.1" id="Camada_1" xmlns="http://www.w3.org/2000/svg" xmlns:xlink="http://www.w3.org/1999/xlink" x="0px" y="0px"
	 viewBox="0 0 742.1 521.5" style="enable-background:new 0 0 742.1 521.5;" xml:space="preserve">
<style type="text/css">
	.st0{fill:#DBDCDC;}
	.st1{fill:#B7BBC0;}
	.st2{fill:#F8F8F8;}
	.st3{fill:#D3D2D3;}
	.st4{fill:#EBEAEA;}
	.st5{fill:#E0E0E0;}
	.st6{fill:#9B9A9B;}
	.st7{fill:#7F7F7F;}
	.st8{fill:#EDEDEC;}
	.st9{fill:#44515C;}
	.st10{fill:#B1B1B1;}
	.st11{fill:#999999;}
	.st12{fill:#FFFFFF;}
	.st13{fill:#35404F;}
	.st14{fill:#48555F;}
</style>
<polygon id="Fill-49_4_" class="st0" points="0,314.1 0,334.2 324.7,521.5 324.7,501.4 "/>
<polygon id="Fill-50_4_" class="st1" points="324.7,501.4 324.7,521.5 742.1,280.6 742.1,260.6 "/>
<polygon id="Fill-17_4_" class="st2" points="0,314.1 324.7,501.5 742.1,260.6 417.4,73.2 "/>
<polygon id="Fill-80_4_" class="st3" points="115.8,278 143.1,293.8 471.4,104.4 444.1,88.6 "/>
<polygon id="XMLID_1063_" class="st4" points="324.7,501.5 414.2,449.8 89.5,262.4 0,314.1 "/>
<polygon id="XMLID_1062_" class="st4" points="444.1,88.6 417.4,73.2 0,314.1 26.7,329.5 "/>
<g id="XMLID_1018_">
	<polygon id="XMLID_1054_" class="st3" points="106,342 155.6,313.1 150.3,310 100.8,339 	"/>
	<polygon id="XMLID_1051_" class="st3" points="83.2,342 113.8,324.3 108.5,321.2 78,339 	"/>
	<polygon id="XMLID_1050_" class="st3" points="94.9,349.6 101.8,345.5 95.1,341.7 88.2,345.7 	"/>
	<polygon id="XMLID_1047_" class="st5" points="178.8,417.3 267.8,365.3 252.4,356.5 163.4,408.4 	"/>
	<g id="XMLID_1042_">
		<polygon id="XMLID_1046_" class="st3" points="186.1,384.9 232.8,357.7 227.6,354.7 180.8,381.8 		"/>
		<polygon id="XMLID_1045_" class="st3" points="205.4,396 252.1,368.9 246.9,365.8 200.1,393 		"/>
		<polygon id="XMLID_1044_" class="st3" points="239.5,398.5 271.5,380 266.2,377 234.2,395.4 		"/>
		<polygon id="XMLID_1043_" class="st3" points="258.8,409.6 290.8,391.2 285.5,388.1 253.6,406.6 		"/>
	</g>
	<polygon id="XMLID_1039_" class="st5" points="140.4,395.2 229.4,343.1 214,334.3 124.9,386.3 	"/>
	<g id="XMLID_1036_">
		<path id="XMLID_1037_" class="st3" d="M254.9,365.7l-3-0.9l0.4-0.2l2.3,0.8l0,0l-0.9-1.6l0.4-0.2l1,2L254.9,365.7z"/>
	</g>
	<g id="XMLID_1033_">
		<path id="XMLID_1034_" class="st3" d="M215.5,343.6l-3-0.9l0.4-0.2l2.3,0.8l0,0l-0.9-1.6l0.4-0.2l1,2L215.5,343.6z"/>
	</g>
	<g id="XMLID_1022_">
		<polygon id="XMLID_1032_" class="st3" points="125.3,353.2 174.9,324.3 169.6,321.2 120.1,350.1 		"/>
		<polygon id="XMLID_1031_" class="st3" points="114.2,360.8 121.2,356.7 114.4,352.8 107.5,356.9 		"/>
		<polygon id="XMLID_1030_" class="st3" points="144.7,364.3 194.2,335.4 188.9,332.3 139.4,361.3 		"/>
		<polygon id="XMLID_1029_" class="st3" points="133.6,371.9 140.5,367.8 133.7,364 126.8,368.1 		"/>
		<polygon id="XMLID_1028_" class="st3" points="164,375.5 213.5,346.6 208.2,343.5 158.7,372.4 		"/>
		<polygon id="XMLID_1027_" class="st3" points="152.9,383.1 159.8,379 153.1,375.1 146.2,379.2 		"/>
		<polygon id="XMLID_1026_" class="st3" points="260.6,431.2 310.1,402.3 304.8,399.3 255.3,428.2 		"/>
		<polygon id="XMLID_1025_" class="st3" points="249.4,438.9 256.4,434.8 249.6,430.9 242.7,435 		"/>
		<polygon id="XMLID_1024_" class="st3" points="279.9,442.4 329.4,413.5 324.1,410.4 274.6,439.3 		"/>
		<polygon id="XMLID_1023_" class="st3" points="268.8,450 275.7,445.9 268.9,442 262,446.1 		"/>
	</g>
</g>
<polygon id="XMLID_1007_" class="st3" points="340.5,137.9 347.4,133.9 340.8,130 333.8,134.1 "/>
<polygon id="XMLID_1006_" class="st3" points="327,145.7 334,141.6 327.3,137.7 320.3,141.8 "/>
<polygon id="XMLID_1005_" class="st3" points="313.5,153.4 320.5,149.4 313.8,145.5 306.8,149.6 "/>
<polygon id="XMLID_1004_" class="st3" points="300,161.2 307,157.1 300.3,153.2 293.4,157.3 "/>
<polygon id="XMLID_1003_" class="st3" points="286.6,168.9 293.5,164.9 286.9,161 279.9,165.1 "/>
<path id="XMLID_999_" class="st3" d="M295.3,156.2c1.1,0.7,1.1,1.8,0.2,2.4c-1,0.6-2.7,0.4-3.7-0.3c-1.1-0.7-1.1-1.8-0.2-2.4
	C292.6,155.3,294.3,155.4,295.3,156.2z"/>
<g id="XMLID_552_">
	<g id="XMLID_650_">
		<polygon id="Fill-201_8_" class="st6" points="115.8,189.4 115.8,195 143.1,210.8 143.2,205.1 		"/>
		<polygon id="Fill-203_6_" class="st7" points="143.2,205.1 143.1,210.8 471.2,21.6 471.4,15.8 		"/>
	</g>
	<polygon id="Fill-80_1_" class="st8" points="115.8,189.4 143.1,205.2 471.4,15.8 444.1,0 	"/>
	<g id="XMLID_562_">
		<polygon id="Fill-71_8_" class="st9" points="218.4,146.9 219.8,151.2 182.8,172.6 181.2,168.1 173.5,167.2 210.4,146 		"/>
		<path id="Fill-74_8_" class="st9" d="M263,126.3l34.9-20.1c2.9-1.7,3.2-4.2,0.6-5.7c-2.5-1.5-7-1.3-9.9,0.4l-34.9,20.1l7.7,0.9
			L263,126.3z"/>
		<polygon id="Fill-76_8_" class="st9" points="250.6,122.7 258.3,123.6 259.9,128.1 222.9,149.4 221.5,145.1 213.6,144.2 		"/>
		<path id="Fill-78_8_" class="st9" d="M170.5,169l-28.6,16.5c-2.9,1.7-3.2,4.2-0.6,5.7c2.5,1.5,7,1.3,9.9-0.4l28.6-16.5l-1.5-4.5
			L170.5,169z"/>
	</g>
</g>
<polygon id="XMLID_575_" class="st10" points="444.1,88.6 425,99.6 116.2,277.8 121.1,280.7 444.1,95 444.1,88.6 "/>
<polygon id="Fill-195_2_" class="st2" points="171.9,288.6 467.4,118.7 706.8,256.9 411.3,426.7 "/>
<g id="XMLID_564_">
	<polygon id="Fill-211_1_" class="st3" points="379.3,218 385.1,221.3 472.1,171.1 466.3,167.7 	"/>
	<polygon id="Fill-219_2_" class="st3" points="442.8,254.8 448.6,258.2 535.6,207.9 529.8,204.6 	"/>
	<polygon id="Fill-229_2_" class="st3" points="506.6,291.7 512.4,295 599.5,244.8 593.7,241.4 	"/>
	<polygon id="Fill-213_2_" class="st3" points="396.7,228 402.5,231.4 512.8,167.7 507,164.4 	"/>
	<polygon id="Fill-215_2_" class="st3" points="408.3,234.7 414.1,238.1 525.5,173.8 519.7,170.4 	"/>
	<polygon id="Fill-217_2_" class="st3" points="419.9,241.4 425.7,244.8 500.8,201.2 495,197.9 	"/>
	<polygon id="Fill-221_2_" class="st3" points="460.2,264.9 466,268.2 576.2,204.6 570.4,201.2 	"/>
	<polygon id="Fill-223_2_" class="st3" points="471.8,271.6 477.6,274.9 547.2,234.7 541.4,231.4 	"/>
	<polygon id="Fill-225_2_" class="st3" points="483.4,278.3 489.2,281.6 570.4,234.7 564.6,231.4 	"/>
	<polygon id="Fill-231_2_" class="st3" points="524,301.7 529.8,305.1 640.1,241.4 634.3,238.1 	"/>
	<polygon id="Fill-239_2_" class="st3" points="535.8,308.4 541.6,311.8 611.3,271.6 605.4,268.2 	"/>
	<polygon id="Fill-241_2_" class="st3" points="547.4,315.1 553.2,318.5 634.5,271.6 628.7,268.2 	"/>
	<polygon id="XMLID_574_" class="st3" points="434.1,159.7 477.5,134.7 466.1,128.1 422.7,153.2 	"/>
</g>
<polygon id="Fill-195_9_" class="st3" points="173.2,288.7 321.4,202.8 560.8,341 412.6,426.9 "/>
<polygon id="XMLID_1058_" class="st11" points="321.4,202.8 321.4,209.5 554.3,344.7 560.8,341 321.4,202.8 "/>
<polygon id="XMLID_1057_" class="st10" points="348,218.2 199.8,304.1 205.3,307.2 348,224.6 "/>
<g id="XMLID_561_">
	<polygon id="Fill-195_1_" class="st2" points="173,288.7 323,201.5 349.6,216.9 199.6,304.2 	"/>
	<polygon id="XMLID_577_" class="st3" points="205.3,289.1 280.2,246 273.5,242.1 198.6,285.2 	"/>
</g>
<g id="XMLID_559_">
	<g id="XMLID_986_">
		<polygon id="Fill-201_3_" class="st6" points="209.6,239.8 209.6,245.3 405,358 405.2,352.3 		"/>
		<polygon id="Fill-203_2_" class="st7" points="405.2,352.3 405,358 533.3,281.8 533.5,276 		"/>
	</g>
	<g id="XMLID_554_">
		<g id="XMLID_558_">
			<g id="XMLID_616_">
				<polygon id="Fill-205_3_" class="st12" points="209.6,239.7 337.9,163.1 533.5,276 405.2,352.6 				"/>
				<polygon id="Fill-211_2_" class="st13" points="233.8,235.4 239.6,238.7 326.7,188.5 320.9,185.2 				"/>
				<polygon id="Fill-219_3_" class="st13" points="297.3,272.2 303.1,275.6 390.1,225.3 384.3,222 				"/>
				<polygon id="Fill-229_3_" class="st13" points="361.1,309.1 366.9,312.4 454,262.2 448.2,258.8 				"/>
				<g id="XMLID_617_">
					<polygon id="Fill-213_3_" class="st14" points="251.2,245.4 257,248.8 367.3,185.2 361.5,181.8 					"/>
					<polygon id="Fill-215_3_" class="st14" points="262.8,252.1 268.6,255.5 380,191.2 374.2,187.8 					"/>
					<polygon id="Fill-217_3_" class="st14" points="274.4,258.8 280.2,262.2 355.3,218.6 349.5,215.3 					"/>
					<polygon id="Fill-221_3_" class="st14" points="314.7,282.3 320.5,285.6 430.8,222 425,218.6 					"/>
					<polygon id="Fill-223_3_" class="st14" points="326.3,289 332.1,292.3 401.7,252.1 395.9,248.8 					"/>
					<polygon id="Fill-225_3_" class="st14" points="337.9,295.7 343.7,299 425,252.1 419.2,248.8 					"/>
					<polygon id="Fill-231_3_" class="st14" points="378.5,319.1 384.3,322.5 494.6,258.8 488.8,255.5 					"/>
					<polygon id="Fill-239_3_" class="st14" points="390.3,325.8 396.1,329.2 465.8,289 460,285.6 					"/>
					<polygon id="Fill-241_3_" class="st14" points="401.9,332.5 407.7,335.9 489,289 483.2,285.6 					"/>
				</g>
			</g>
		</g>
	</g>
</g>
</svg>
