<?xml version="1.0" encoding="utf-8"?>
<!-- Generator: Adobe Illustrator 19.0.0, SVG Export Plug-In . SVG Version: 6.00 Build 0)  -->
<svg version="1.1" id="Camada_1" xmlns="http://www.w3.org/2000/svg" xmlns:xlink="http://www.w3.org/1999/xlink" x="0px" y="0px"
	 viewBox="0 0 200 45" style="enable-background:new 0 0 200 45;" xml:space="preserve">
<style type="text/css">
	.st0{fill:#4A72B2;}
	.st1{fill:#BE003E;}
</style>
<path class="st0" d="M52.1,26.4c0,2.6-2.1,4.8-4.8,4.8s-4.8-2.1-4.8-4.8c0-2.6,2.1-4.8,4.8-4.8S52.1,23.8,52.1,26.4"/>
<path class="st1" d="M70.7,16c-5.8,0-10.5,4.7-10.5,10.5C60.3,32.3,65,37,70.7,37c1.9,0,3.7-0.5,5.2-1.4l0.2-0.1v0
	c0.5-0.3,0.8-0.9,0.8-1.5c0-1-0.8-1.9-1.9-1.9c-0.2,0-0.4,0-0.6,0.1l0,0l-0.4,0.2c-1,0.6-2.1,0.9-3.4,0.9c-2.9,0-5.4-1.8-6.3-4.4
	l11.4,0h3.7l0,0c0.2,0,0.5-0.1,0.9-0.3c0.2-0.1,0.4-0.3,0.5-0.5c0.1-0.2,0.3-0.5,0.3-0.8l0,0l0,0c0-0.2,0-0.4,0-0.6
	C81.2,20.7,76.5,16,70.7,16 M70.7,19.8c3.3,0,6,2.4,6.6,5.5H64.1C64.7,22.1,67.5,19.8,70.7,19.8"/>
<path class="st1" d="M139.5,16c-5.8,0-10.5,4.7-10.5,10.5c0,5.8,4.7,10.5,10.5,10.5c1.9,0,3.7-0.5,5.2-1.4l0.2-0.1v0
	c0.5-0.3,0.8-0.9,0.8-1.5c0-1-0.8-1.9-1.9-1.9c-0.2,0-0.4,0-0.6,0.1l0,0l-0.4,0.2c-1,0.6-2.1,0.9-3.4,0.9c-2.9,0-5.4-1.8-6.3-4.4
	l11.4,0h3.7l0,0c0.2,0,0.5-0.1,0.9-0.3c0.2-0.1,0.4-0.3,0.5-0.5c0.1-0.2,0.3-0.5,0.3-0.8l0,0l0,0c0-0.2,0-0.4,0-0.6
	C149.9,20.7,145.2,16,139.5,16 M139.5,19.8c3.3,0,6,2.4,6.6,5.5h-13.2C133.4,22.1,136.2,19.8,139.5,19.8"/>
<path class="st1" d="M47.3,15.8c-2.7,0-5.1,1-7,2.6v-5.7h0v-3c0-1-0.8-1.7-1.7-1.7h-0.1c-1,0-1.7,0.8-1.7,1.7v3.4v2v11.1
	c0,0,0,0.1,0,0.2c0,0.1,0,0.1,0,0.2v0.1V27h0c0.3,5.6,4.9,10,10.6,10c5.8,0,10.6-4.7,10.6-10.6C57.9,20.6,53.2,15.8,47.3,15.8
	 M47.3,33.3c-1.9,0-3.7-0.8-4.9-2c-1.3-1.3-2-3-2-4.9s0.8-3.7,2-4.9c1.3-1.3,3-2,4.9-2c1.9,0,3.7,0.8,4.9,2c1.3,1.3,2,3,2,4.9
	c0,1.9-0.8,3.7-2,4.9C51,32.6,49.3,33.3,47.3,33.3"/>
<path class="st1" d="M93.8,16.1c-2.5,0-4.8,0.9-6.6,2.4v-0.6c0-1-0.8-1.8-1.8-1.8c-1,0-1.8,0.8-1.8,1.8v17.4c0,1,0.8,1.8,1.8,1.8
	c1,0,1.8-0.8,1.8-1.8v-2.1v-6.9c0-1.8,0.7-3.4,1.9-4.6c1.2-1.2,2.8-1.9,4.6-1.9c1.8,0,3.4,0.7,4.6,1.9c1.2,1.2,1.9,2.8,1.9,4.6v6.9
	v2c0,1,0.8,1.8,1.8,1.8c1,0,1.8-0.8,1.8-1.8v-8c0-0.3,0-0.6,0-0.9C103.9,20.6,99.4,16.1,93.8,16.1"/>
<path class="st1" d="M116.4,16.1c-2.5,0-4.8,0.9-6.6,2.4v-0.6c0-1-0.8-1.8-1.8-1.8c-1,0-1.8,0.8-1.8,1.8v17.4c0,1,0.8,1.8,1.8,1.8
	c1,0,1.8-0.8,1.8-1.8v-2.1v-6.9c0-1.8,0.7-3.4,1.9-4.6c1.2-1.2,2.8-1.9,4.6-1.9c1.8,0,3.4,0.7,4.6,1.9c1.2,1.2,1.9,2.8,1.9,4.6v6.9
	v2c0,1,0.8,1.8,1.8,1.8c1,0,1.8-0.8,1.8-1.8v-8c0-0.3,0-0.6,0-0.9C126.6,20.6,122.1,16.1,116.4,16.1"/>
<path class="st1" d="M166.5,16.9L166.5,16.9l-0.2-0.1c-1.2-0.5-2.4-0.7-3.7-0.7c-2.5,0-4.8,0.9-6.6,2.4v-0.6c0-1-0.8-1.8-1.8-1.8
	c-1,0-1.8,0.8-1.8,1.8v17.4c0,1,0.8,1.8,1.8,1.8c1,0,1.8-0.8,1.8-1.8v-8.9c0-1.8,0.7-3.4,1.9-4.6c1.2-1.2,2.8-1.9,4.6-1.9
	c0.9,0,1.7,0.2,2.5,0.5l0.3,0.1l0,0c0.1,0,0.3,0,0.4,0c1,0,1.8-0.8,1.8-1.8C167.5,17.8,167.1,17.2,166.5,16.9"/>
</svg>
