<?xml version="1.0" encoding="utf-8"?>
<!-- Generator: Adobe Illustrator 19.0.0, SVG Export Plug-In . SVG Version: 6.00 Build 0)  -->
<svg version="1.1" id="Camada_1" xmlns="http://www.w3.org/2000/svg" xmlns:xlink="http://www.w3.org/1999/xlink" x="0px" y="0px"
	 viewBox="65 201.8 921.2 211.2" style="enable-background:new 65 201.8 921.2 211.2;" xml:space="preserve">
<style type="text/css">
	.st0{fill:#DD003F;}
</style>
<g id="XMLID_576_">
	<path id="XMLID_582_" class="st0" d="M188.8,361.3c0,33.5-20,49.5-61.9,49.5S65,391.6,65,348.6v-36.2c0-40,20-62.2,61.9-62.2
		s61.9,19.2,61.9,62.2V344h-86.5v4.1c0,25.7,10,30.6,25.2,30.6c17.6,0,24.9-6.2,24.9-17.3h36.4V361.3z M102.3,313.5h50.6
		c0-20-3.8-31.1-24.9-31.1C106.1,282.4,102.3,294.3,102.3,313.5z"/>
	<path id="XMLID_580_" class="st0" d="M217.8,201.8h37v149.5c0,17.6,3.2,23.3,18.7,23.3v35.7c-43,0-55.7-12.7-55.7-58.4V201.8z"/>
	<path id="XMLID_577_" class="st0" d="M295.1,350.8v-38.4c0-41.9,20-62.2,61.9-62.2s61.9,19.2,61.9,62.2v38.4
		c0,43-20,62.2-61.9,62.2S295.1,393.8,295.1,350.8z M381.6,348.9v-34.6c0-19.7-5.1-31.1-24.6-31.1s-24.6,11.4-24.6,31.1v34.6
		c0,19.7,5.1,31.1,24.6,31.1S381.6,368.6,381.6,348.9z"/>
</g>
<g id="XMLID_519_">
	<g id="XMLID_549_">
		<g id="XMLID_699_">
			<path id="XMLID_727_" d="M489.9,397c0-3-1-5.3-3.1-7s-5.9-3.4-11.4-4.9c-5.5-1.6-9.6-3.3-12.1-5.1c-3.6-2.6-5.4-6-5.4-10.2
				c0-4.1,1.7-7.4,5.1-10c3.4-2.6,7.7-3.8,12.9-3.8c3.5,0,6.7,0.7,9.5,2.1s5,3.3,6.5,5.7c1.5,2.5,2.3,5.2,2.3,8.2h-4.6
				c0-3.7-1.3-6.6-3.8-8.8c-2.5-2.2-5.9-3.3-10.1-3.3c-4.1,0-7.4,0.9-9.8,2.7c-2.4,1.8-3.6,4.2-3.6,7.2c0,2.7,1.1,4.9,3.3,6.7
				c2.2,1.7,5.7,3.2,10.5,4.5c4.8,1.3,8.4,2.7,10.9,4.1c2.5,1.4,4.3,3.1,5.6,5.1c1.3,2,1.9,4.3,1.9,6.9c0,4.2-1.7,7.6-5.1,10.1
				s-7.8,3.8-13.3,3.8c-3.8,0-7.2-0.7-10.4-2c-3.1-1.3-5.5-3.2-7.2-5.7c-1.6-2.4-2.4-5.2-2.4-8.3h4.5c0,3.8,1.4,6.7,4.2,8.9
				c2.8,2.2,6.6,3.3,11.2,3.3c4.2,0,7.5-0.9,10-2.8C488.6,402.5,489.9,400,489.9,397z"/>
			<path id="XMLID_725_" d="M570.4,385.8l16.4-29.2h5.2L572.7,390v20.1h-4.5V390l-19.3-33.4h5.4L570.4,385.8z"/>
			<path id="XMLID_723_" d="M680.2,397c0-3-1-5.3-3.1-7s-5.9-3.4-11.4-4.9c-5.5-1.6-9.6-3.3-12.1-5.1c-3.6-2.6-5.4-6-5.4-10.2
				c0-4.1,1.7-7.4,5.1-10c3.4-2.6,7.7-3.8,12.9-3.8c3.5,0,6.7,0.7,9.5,2.1s5,3.3,6.5,5.7c1.5,2.5,2.3,5.2,2.3,8.2h-4.6
				c0-3.7-1.3-6.6-3.8-8.8c-2.5-2.2-5.9-3.3-10.1-3.3c-4.1,0-7.4,0.9-9.8,2.7c-2.4,1.8-3.6,4.2-3.6,7.2c0,2.7,1.1,4.9,3.3,6.7
				c2.2,1.7,5.7,3.2,10.5,4.5c4.8,1.3,8.4,2.7,10.9,4.1c2.5,1.4,4.3,3.1,5.6,5.1s1.9,4.3,1.9,6.9c0,4.2-1.7,7.6-5.1,10.1
				c-3.4,2.5-7.8,3.8-13.3,3.8c-3.8,0-7.2-0.7-10.4-2c-3.1-1.3-5.5-3.2-7.2-5.7c-1.6-2.4-2.4-5.2-2.4-8.3h4.5c0,3.8,1.4,6.7,4.2,8.9
				s6.6,3.3,11.2,3.3c4.2,0,7.5-0.9,10-2.8C678.9,402.5,680.2,400,680.2,397z"/>
			<path id="XMLID_704_" d="M781.4,360.5h-18.3v49.7h-4.5v-49.7h-18.3v-3.8h41.2v3.8H781.4z"/>
			<path id="XMLID_702_" d="M870.7,384.5h-25v21.8h28.8v3.8h-33.3v-53.5h33.1v3.8h-28.6v20.2h25V384.5z"/>
			<path id="XMLID_700_" d="M940.6,356.6l19.7,47.2l19.8-47.2h6v53.5h-4.5v-23.3l0.4-23.9l-19.9,47.2h-3.5l-19.8-47l0.4,23.6v23.4
				h-4.5v-53.5H940.6z"/>
		</g>
	</g>
	<g id="XMLID_520_">
		<g id="XMLID_705_">
			<path id="XMLID_719_" d="M456.1,310.7v-56.6h15.8c4.6,0,8.8,1.1,12.5,3.2c3.7,2.1,6.6,5.1,8.6,9.1c2.1,3.9,3.1,8.4,3.1,13.5v5.2
				c0,5.1-1,9.5-3.1,13.5c-2,3.9-4.9,6.9-8.7,9.1c-3.7,2.1-8,3.2-12.8,3.2h-15.4V310.7z M460.9,258.1v48.6h10.7c6,0,10.7-2,14.4-5.9
				c3.6-4,5.4-9.3,5.4-16.1v-5c0-6.5-1.8-11.7-5.3-15.7s-8.2-5.9-14-5.9C472.1,258.1,460.9,258.1,460.9,258.1z"/>
			<path id="XMLID_717_" d="M593.1,283.5h-26.5v23.1h30.5v4h-35.2v-56.5h35v4h-30.3v21.4h26.5V283.5z"/>
			<path id="XMLID_715_" d="M692.9,296.8c0-3.1-1.1-5.6-3.3-7.5c-2.2-1.8-6.2-3.6-12.1-5.2c-5.9-1.6-10.1-3.4-12.8-5.4
				c-3.8-2.7-5.8-6.4-5.8-10.8c0-4.3,1.8-7.8,5.4-10.6c3.6-2.7,8.1-4.1,13.7-4.1c3.8,0,7.1,0.7,10.1,2.2c3,1.5,5.3,3.5,6.9,6.1
				c1.6,2.6,2.5,5.5,2.5,8.7h-4.8c0-3.9-1.3-7-4-9.3c-2.7-2.3-6.2-3.5-10.7-3.5c-4.3,0-7.8,1-10.3,2.9c-2.6,1.9-3.9,4.5-3.9,7.6
				c0,2.9,1.2,5.2,3.5,7.1c2.3,1.8,6,3.4,11.1,4.8s8.9,2.8,11.6,4.3c2.6,1.5,4.6,3.3,5.9,5.3c1.3,2.1,2,4.5,2,7.4
				c0,4.5-1.8,8-5.4,10.7c-3.6,2.7-8.3,4-14.1,4c-4,0-7.7-0.7-11-2.1c-3.3-1.4-5.9-3.4-7.6-6c-1.7-2.6-2.6-5.5-2.6-8.8h4.8
				c0,4,1.5,7.1,4.5,9.5c3,2.3,7,3.5,11.9,3.5c4.4,0,8-1,10.6-2.9S692.9,300,692.9,296.8z"/>
			<path id="XMLID_713_" d="M767.7,310.7h-4.8v-56.6h4.8V310.7z"/>
			<path id="XMLID_710_" d="M877,304c-1.7,2.4-4.3,4.2-7.8,5.5s-7.5,2-11.9,2s-8.4-1.1-11.8-3.2c-3.4-2.1-6.1-5.1-8-9
				c-1.9-3.9-2.9-8.4-2.9-13.4v-7.2c0-7.9,2-14.1,6-18.6c4-4.6,9.3-6.8,16-6.8c5.8,0,10.5,1.5,14.1,4.5c3.6,3,5.7,7.1,6.3,12.3h-4.8
				c-0.7-4.2-2.4-7.3-5.1-9.5c-2.7-2.1-6.2-3.2-10.5-3.2c-5.3,0-9.5,1.9-12.6,5.6c-3.1,3.8-4.6,9.1-4.6,15.9v6.7
				c0,4.3,0.7,8.1,2.2,11.4s3.6,5.9,6.3,7.7c2.7,1.8,5.9,2.7,9.4,2.7c4.1,0,7.7-0.6,10.6-1.9c1.9-0.9,3.3-1.9,4.3-3v-14.6H857v-4h20
				V304z"/>
			<path id="XMLID_708_" d="M986.2,310.7h-4.8l-32.6-48.5v48.5H944v-56.6h4.8l32.6,48.5v-48.5h4.7v56.6H986.2z"/>
		</g>
	</g>
</g>
</svg>
